M48
;Layer_Color=9474304
;FILE_FORMAT=2:3
INCH,LZ
;TYPE=PLATED
T1F00S00C0.015
T2F00S00C0.035
T3F00S00C0.040
T4F00S00C0.118
%
T01
X00145Y00085
X0008Y0015
X0005Y00235
X00045Y0033
Y0041
X0013
Y0033
X0022
Y0041
X00315
X0031Y0033
X00415Y00325
Y0041
X00505
X005Y00325
X0043Y0005
X0034
X0025
X00045Y00505
Y0059
X0066Y0056
X0082Y0053
X0085Y00425
X0075Y0043
Y003
X0085Y00295
X00965Y003
Y00425
X0111Y0044
X01225
X0128Y00395
X01355Y00435
X01448
X01445Y0048
X01475Y00545
X0133Y0055
X01275Y00585
X0121Y0059
X0111
X0126Y0052
X01225Y00295
X0111
X0118Y00185
X0128
X01355Y00255
X01415
Y0032
X01505Y00315
X01599Y00301
X01643
Y00344
X01599
X01533Y00425
X01655Y00455
X0173Y00395
X0176Y00365
X018Y0035
X01915Y00305
X02015
X02065Y00485
X01865
X01765Y0057
X0168
X01645Y00085
X01725
X01805
X01885
X01965
X02045
X01555
Y0016
X0145Y00085
X01335
X0093Y00135
Y00185
X0077Y00191
Y00159
X007Y00135
Y002
X00605Y00275
X0069Y00035
X02125Y00085
X02205
X02285
X02365
X02445
X02525
X02605
X02685
X02765
X02845
X02925
X03005
X03085
X03165
X03245
X03325
Y00165
X03425Y00045
X03495
X0356Y00055
X03625Y00095
X0367Y00145
X0342Y00485
Y00555
Y00655
X0331Y00485
X0311
X03005
X02895
X02695
X02595
X0248
X0228
X02175
Y00605
Y00365
X02285Y00275
X0238
X02435Y0029
X0259Y00365
X0269Y00245
X02795
X02885
X03005Y00365
Y00605
X02595
X03705Y00575
Y00505
Y00435
Y0036
Y0029
Y00215
Y0065
X0366Y0075
X03595Y00795
X03525Y00835
X0344
X03355
X0327
X03185
X031
X03015
X0293
X02845
X0276
X02675
X0259
X02505
X0242
X02335
X0225
X02165
X0208
X01995
X0191
X01825
X0174
X01655
X01665Y00785
X01655Y0073
X0168Y00665
X01765
X01419Y00785
X01275Y00735
X01215
X0121Y0067
X0114Y0078
X0076Y0076
X0067Y00765
X0068Y00835
X0061
X0051
X00425Y00825
X0033
X00245
X0017Y0081
X00105Y00755
X00065Y0069
T02
X0051Y00095
Y00195
Y00475
Y00575
Y00675
Y00775
T03
X01865Y00365
X01965
X02065
Y00605
X01965
X01865
X0228
X0238
X0248
X02695
X02795
X02895
X0311
X0321
X0331
Y00365
X0321
X0311
X02895
X02795
X02695
X0248
X0238
X0228
X0354Y00455
Y00555
Y00655
T04
X0354Y002
X01Y007
M30
