G04 Layer_Physical_Order=2*
G04 Layer_Color=16711680*
%FSLAX23Y23*%
%MOIN*%
G70*
G01*
G75*
%ADD26C,0.030*%
%ADD27C,0.010*%
%ADD28C,0.008*%
%ADD30O,0.060X0.120*%
%ADD31R,0.059X0.059*%
%ADD32C,0.059*%
%ADD33C,0.197*%
%ADD34O,0.120X0.060*%
%ADD35C,0.025*%
%ADD36C,0.030*%
G36*
X705Y535D02*
X560D01*
Y375D01*
X22D01*
Y628D01*
X24Y655D01*
X30Y684D01*
X39Y712D01*
X53Y739D01*
X69Y764D01*
X89Y786D01*
X111Y806D01*
X136Y822D01*
X163Y836D01*
X191Y845D01*
X220Y851D01*
X245Y853D01*
X245Y853D01*
X250Y853D01*
X250D01*
X255Y853D01*
X255D01*
X255D01*
X705D01*
Y535D01*
D02*
G37*
G36*
X3500Y853D02*
Y853D01*
X3505Y853D01*
X3530Y851D01*
X3559Y845D01*
X3587Y836D01*
X3614Y822D01*
X3639Y806D01*
X3661Y786D01*
X3681Y764D01*
X3697Y739D01*
X3711Y712D01*
X3720Y684D01*
X3726Y655D01*
X3728Y628D01*
Y247D01*
X3726Y220D01*
X3720Y191D01*
X3711Y163D01*
X3697Y136D01*
X3681Y111D01*
X3661Y89D01*
X3639Y69D01*
X3614Y53D01*
X3587Y39D01*
X3559Y30D01*
X3530Y24D01*
X3501Y22D01*
X3500Y22D01*
X856D01*
X854Y27D01*
X946Y119D01*
X951Y126D01*
X952Y135D01*
X951Y144D01*
X946Y151D01*
X939Y156D01*
X930Y157D01*
X921Y156D01*
X914Y151D01*
X826Y62D01*
X707D01*
Y85D01*
X734Y111D01*
X736Y115D01*
X737Y120D01*
Y150D01*
X736Y155D01*
X734Y159D01*
X712Y180D01*
X713Y185D01*
X714Y186D01*
X718Y192D01*
X720Y200D01*
X718Y208D01*
X714Y214D01*
X708Y218D01*
X700Y220D01*
X692Y218D01*
X686Y214D01*
X682Y208D01*
X680Y200D01*
X682Y192D01*
X686Y186D01*
X688Y185D01*
Y175D01*
X689Y170D01*
X691Y166D01*
X698Y160D01*
X696Y154D01*
X692Y153D01*
X686Y149D01*
X685Y147D01*
X650D01*
X642Y155D01*
Y250D01*
X641Y255D01*
X639Y259D01*
X624Y273D01*
X625Y275D01*
X623Y283D01*
X619Y289D01*
X613Y293D01*
X605Y295D01*
X597Y293D01*
X591Y289D01*
X587Y283D01*
X585Y275D01*
X587Y267D01*
X591Y261D01*
X597Y257D01*
X605Y255D01*
X607Y256D01*
X618Y245D01*
Y150D01*
X619Y145D01*
X621Y141D01*
X636Y126D01*
X640Y124D01*
X645Y123D01*
X685D01*
X686Y121D01*
X692Y117D01*
X696Y116D01*
X698Y110D01*
X686Y99D01*
X684Y95D01*
X683Y90D01*
Y60D01*
X677Y56D01*
X674Y53D01*
X669Y46D01*
X668Y37D01*
X669Y28D01*
X670Y27D01*
X668Y22D01*
X250D01*
X249Y22D01*
X220Y24D01*
X191Y30D01*
X163Y39D01*
X136Y53D01*
X111Y69D01*
X89Y89D01*
X69Y111D01*
X53Y136D01*
X39Y163D01*
X30Y191D01*
X24Y220D01*
X22Y249D01*
X22Y250D01*
Y365D01*
X551Y365D01*
X553Y360D01*
X494Y301D01*
X489Y294D01*
X488Y285D01*
Y232D01*
X473D01*
Y158D01*
X547D01*
Y232D01*
X532D01*
Y276D01*
X619Y363D01*
X866D01*
X908Y321D01*
Y185D01*
X909Y176D01*
X914Y169D01*
X921Y164D01*
X930Y163D01*
X939Y164D01*
X946Y169D01*
X951Y176D01*
X952Y185D01*
Y330D01*
X951Y339D01*
X946Y346D01*
X891Y401D01*
X884Y406D01*
X875Y407D01*
X610D01*
X601Y406D01*
X594Y401D01*
X575Y381D01*
X570Y383D01*
Y525D01*
X715D01*
X715Y853D01*
X3500D01*
X3500Y853D01*
D02*
G37*
%LPC*%
G36*
X3210Y432D02*
X3200Y431D01*
X3191Y427D01*
X3184Y421D01*
X3178Y414D01*
X3174Y405D01*
X3173Y395D01*
Y335D01*
X3174Y325D01*
X3178Y316D01*
X3184Y309D01*
X3191Y303D01*
X3200Y299D01*
X3210Y298D01*
X3220Y299D01*
X3229Y303D01*
X3236Y309D01*
X3242Y316D01*
X3246Y325D01*
X3247Y335D01*
Y395D01*
X3246Y405D01*
X3242Y414D01*
X3236Y421D01*
X3229Y427D01*
X3220Y431D01*
X3210Y432D01*
D02*
G37*
G36*
X3110D02*
X3100Y431D01*
X3091Y427D01*
X3084Y421D01*
X3078Y414D01*
X3074Y405D01*
X3073Y395D01*
Y335D01*
X3074Y325D01*
X3078Y316D01*
X3084Y309D01*
X3091Y303D01*
X3100Y299D01*
X3110Y298D01*
X3120Y299D01*
X3129Y303D01*
X3136Y309D01*
X3142Y316D01*
X3146Y325D01*
X3147Y335D01*
Y395D01*
X3146Y405D01*
X3142Y414D01*
X3136Y421D01*
X3129Y427D01*
X3120Y431D01*
X3110Y432D01*
D02*
G37*
G36*
X3570Y592D02*
X3510D01*
X3500Y591D01*
X3491Y587D01*
X3484Y581D01*
X3478Y574D01*
X3474Y565D01*
X3473Y555D01*
X3474Y545D01*
X3478Y536D01*
X3484Y529D01*
X3491Y523D01*
X3500Y519D01*
X3510Y518D01*
X3570D01*
X3580Y519D01*
X3589Y523D01*
X3596Y529D01*
X3602Y536D01*
X3606Y545D01*
X3607Y555D01*
X3606Y565D01*
X3602Y574D01*
X3596Y581D01*
X3589Y587D01*
X3580Y591D01*
X3570Y592D01*
D02*
G37*
G36*
Y492D02*
X3510D01*
X3500Y491D01*
X3491Y487D01*
X3484Y481D01*
X3478Y474D01*
X3474Y465D01*
X3473Y455D01*
X3474Y445D01*
X3478Y436D01*
X3484Y429D01*
X3491Y423D01*
X3500Y419D01*
X3510Y418D01*
X3570D01*
X3580Y419D01*
X3589Y423D01*
X3596Y429D01*
X3602Y436D01*
X3606Y445D01*
X3607Y455D01*
X3606Y465D01*
X3602Y474D01*
X3596Y481D01*
X3589Y487D01*
X3580Y491D01*
X3570Y492D01*
D02*
G37*
G36*
X2795Y432D02*
X2785Y431D01*
X2776Y427D01*
X2769Y421D01*
X2763Y414D01*
X2759Y405D01*
X2758Y395D01*
Y335D01*
X2759Y325D01*
X2763Y316D01*
X2769Y309D01*
X2776Y303D01*
X2785Y299D01*
X2795Y298D01*
X2805Y299D01*
X2814Y303D01*
X2821Y309D01*
X2827Y316D01*
X2831Y325D01*
X2832Y335D01*
Y395D01*
X2831Y405D01*
X2827Y414D01*
X2821Y421D01*
X2814Y427D01*
X2805Y431D01*
X2795Y432D01*
D02*
G37*
G36*
X1965D02*
X1955Y431D01*
X1946Y427D01*
X1939Y421D01*
X1933Y414D01*
X1929Y405D01*
X1928Y395D01*
Y335D01*
X1929Y325D01*
X1933Y316D01*
X1939Y309D01*
X1946Y303D01*
X1955Y299D01*
X1965Y298D01*
X1975Y299D01*
X1984Y303D01*
X1991Y309D01*
X1997Y316D01*
X2001Y325D01*
X2002Y335D01*
Y395D01*
X2001Y405D01*
X1997Y414D01*
X1991Y421D01*
X1984Y427D01*
X1975Y431D01*
X1965Y432D01*
D02*
G37*
G36*
X1865D02*
X1855Y431D01*
X1846Y427D01*
X1839Y421D01*
X1833Y414D01*
X1829Y405D01*
X1828Y395D01*
Y335D01*
X1829Y325D01*
X1833Y316D01*
X1839Y309D01*
X1846Y303D01*
X1855Y299D01*
X1865Y298D01*
X1875Y299D01*
X1884Y303D01*
X1891Y309D01*
X1897Y316D01*
X1901Y325D01*
X1902Y335D01*
Y395D01*
X1901Y405D01*
X1897Y414D01*
X1891Y421D01*
X1884Y427D01*
X1875Y431D01*
X1865Y432D01*
D02*
G37*
G36*
X2280D02*
X2270Y431D01*
X2261Y427D01*
X2254Y421D01*
X2248Y414D01*
X2244Y405D01*
X2243Y395D01*
Y335D01*
X2244Y325D01*
X2248Y316D01*
X2254Y309D01*
X2261Y303D01*
X2270Y299D01*
X2280Y298D01*
X2290Y299D01*
X2299Y303D01*
X2306Y309D01*
X2312Y316D01*
X2316Y325D01*
X2317Y335D01*
Y395D01*
X2316Y405D01*
X2312Y414D01*
X2306Y421D01*
X2299Y427D01*
X2290Y431D01*
X2280Y432D01*
D02*
G37*
G36*
X2695D02*
X2685Y431D01*
X2676Y427D01*
X2669Y421D01*
X2663Y414D01*
X2659Y405D01*
X2658Y395D01*
Y335D01*
X2659Y325D01*
X2663Y316D01*
X2669Y309D01*
X2676Y303D01*
X2685Y299D01*
X2695Y298D01*
X2705Y299D01*
X2714Y303D01*
X2721Y309D01*
X2727Y316D01*
X2731Y325D01*
X2732Y335D01*
Y395D01*
X2731Y405D01*
X2727Y414D01*
X2721Y421D01*
X2714Y427D01*
X2705Y431D01*
X2695Y432D01*
D02*
G37*
G36*
X2380D02*
X2370Y431D01*
X2361Y427D01*
X2354Y421D01*
X2348Y414D01*
X2344Y405D01*
X2343Y395D01*
Y335D01*
X2344Y325D01*
X2348Y316D01*
X2354Y309D01*
X2361Y303D01*
X2370Y299D01*
X2380Y298D01*
X2390Y299D01*
X2399Y303D01*
X2406Y309D01*
X2412Y316D01*
X2416Y325D01*
X2417Y335D01*
Y395D01*
X2416Y405D01*
X2412Y414D01*
X2406Y421D01*
X2399Y427D01*
X2390Y431D01*
X2380Y432D01*
D02*
G37*
G36*
X1330Y570D02*
X1322Y568D01*
X1316Y564D01*
X1312Y558D01*
X1310Y550D01*
X1312Y542D01*
X1316Y536D01*
X1315Y535D01*
X1314Y531D01*
X1276D01*
X1274Y534D01*
X1268Y538D01*
X1260Y540D01*
X1252Y538D01*
X1246Y534D01*
X1242Y528D01*
X1240Y520D01*
X1242Y512D01*
X1246Y506D01*
X1252Y502D01*
X1260Y500D01*
X1268Y502D01*
X1274Y506D01*
X1276Y509D01*
X1355D01*
X1367Y497D01*
X1371Y495D01*
X1375Y494D01*
X1375Y494D01*
X1395D01*
X1395Y494D01*
X1395Y494D01*
X1425D01*
X1428Y489D01*
X1427Y488D01*
X1425Y480D01*
X1426Y478D01*
X1395Y447D01*
X1370D01*
X1369Y449D01*
X1363Y453D01*
X1355Y455D01*
X1347Y453D01*
X1341Y449D01*
X1337Y443D01*
X1335Y435D01*
X1337Y427D01*
X1341Y421D01*
X1347Y417D01*
X1355Y415D01*
X1363Y417D01*
X1369Y421D01*
X1370Y423D01*
X1400D01*
X1405Y424D01*
X1409Y426D01*
X1443Y461D01*
X1445Y460D01*
X1453Y462D01*
X1459Y466D01*
X1463Y472D01*
X1465Y480D01*
X1463Y488D01*
X1462Y489D01*
X1465Y494D01*
X1640D01*
X1654Y480D01*
X1653Y474D01*
X1647Y473D01*
X1641Y469D01*
X1640Y467D01*
X1563D01*
X1558Y466D01*
X1554Y464D01*
X1535Y444D01*
X1533Y445D01*
X1525Y443D01*
X1519Y439D01*
X1514Y433D01*
X1513Y425D01*
X1514Y417D01*
X1519Y411D01*
X1525Y407D01*
X1533Y405D01*
X1540Y407D01*
X1547Y411D01*
X1551Y417D01*
X1553Y425D01*
X1552Y427D01*
X1568Y443D01*
X1640D01*
X1641Y441D01*
X1647Y437D01*
X1655Y435D01*
X1663Y437D01*
X1669Y441D01*
X1673Y447D01*
X1674Y453D01*
X1680Y454D01*
X1704Y430D01*
Y425D01*
X1697Y418D01*
X1695Y414D01*
X1694Y410D01*
X1694Y410D01*
Y385D01*
X1694Y385D01*
X1695Y381D01*
X1697Y377D01*
X1717Y357D01*
X1717Y357D01*
X1721Y355D01*
X1725Y354D01*
X1725Y354D01*
X1744D01*
X1746Y351D01*
X1752Y347D01*
X1760Y345D01*
X1768Y347D01*
X1774Y351D01*
X1778Y357D01*
X1780Y365D01*
X1778Y373D01*
X1774Y379D01*
X1768Y383D01*
X1760Y385D01*
X1752Y383D01*
X1751Y383D01*
X1748Y386D01*
X1748Y387D01*
X1750Y395D01*
X1748Y403D01*
X1744Y409D01*
X1741Y411D01*
Y455D01*
X1740Y459D01*
X1738Y463D01*
X1734Y465D01*
X1730Y466D01*
X1721D01*
X1659Y528D01*
X1656Y530D01*
X1651Y531D01*
X1651Y531D01*
X1405D01*
X1378Y558D01*
X1374Y560D01*
X1370Y561D01*
X1370Y561D01*
X1346D01*
X1344Y564D01*
X1338Y568D01*
X1330Y570D01*
D02*
G37*
G36*
X510Y612D02*
X500Y611D01*
X492Y607D01*
X484Y601D01*
X478Y593D01*
X474Y585D01*
X473Y575D01*
X474Y565D01*
X478Y557D01*
X484Y549D01*
X492Y543D01*
X500Y539D01*
X510Y538D01*
X520Y539D01*
X528Y543D01*
X536Y549D01*
X542Y557D01*
X546Y565D01*
X547Y575D01*
X546Y585D01*
X542Y593D01*
X536Y601D01*
X528Y607D01*
X520Y611D01*
X510Y612D01*
D02*
G37*
G36*
X3310Y672D02*
X3300Y671D01*
X3291Y667D01*
X3284Y661D01*
X3278Y654D01*
X3274Y645D01*
X3273Y635D01*
Y575D01*
X3274Y565D01*
X3278Y556D01*
X3284Y549D01*
X3291Y543D01*
X3300Y539D01*
X3310Y538D01*
X3320Y539D01*
X3329Y543D01*
X3336Y549D01*
X3342Y556D01*
X3346Y565D01*
X3347Y575D01*
Y635D01*
X3346Y645D01*
X3342Y654D01*
X3336Y661D01*
X3329Y667D01*
X3320Y671D01*
X3310Y672D01*
D02*
G37*
G36*
X3210D02*
X3200Y671D01*
X3191Y667D01*
X3184Y661D01*
X3178Y654D01*
X3174Y645D01*
X3173Y635D01*
Y575D01*
X3174Y565D01*
X3178Y556D01*
X3184Y549D01*
X3191Y543D01*
X3200Y539D01*
X3210Y538D01*
X3220Y539D01*
X3229Y543D01*
X3236Y549D01*
X3242Y556D01*
X3246Y565D01*
X3247Y575D01*
Y635D01*
X3246Y645D01*
X3242Y654D01*
X3236Y661D01*
X3229Y667D01*
X3220Y671D01*
X3210Y672D01*
D02*
G37*
G36*
X1665Y807D02*
X1419D01*
X1410Y806D01*
X1403Y801D01*
X1398Y794D01*
X1396Y785D01*
X1398Y776D01*
X1403Y769D01*
X1410Y764D01*
X1419Y763D01*
X1665D01*
X1674Y764D01*
X1681Y769D01*
X1686Y776D01*
X1687Y785D01*
X1686Y794D01*
X1681Y801D01*
X1674Y806D01*
X1665Y807D01*
D02*
G37*
G36*
X547Y812D02*
X473D01*
Y738D01*
X547D01*
Y812D01*
D02*
G37*
G36*
X510Y712D02*
X500Y711D01*
X492Y707D01*
X484Y701D01*
X478Y693D01*
X474Y685D01*
X473Y675D01*
X474Y665D01*
X478Y657D01*
X484Y649D01*
X492Y643D01*
X500Y639D01*
X510Y638D01*
X520Y639D01*
X528Y643D01*
X536Y649D01*
X542Y657D01*
X546Y665D01*
X547Y675D01*
X546Y685D01*
X542Y693D01*
X536Y701D01*
X528Y707D01*
X520Y711D01*
X510Y712D01*
D02*
G37*
G36*
X2380Y672D02*
X2370Y671D01*
X2361Y667D01*
X2354Y661D01*
X2348Y654D01*
X2344Y645D01*
X2343Y635D01*
Y575D01*
X2344Y565D01*
X2348Y556D01*
X2354Y549D01*
X2361Y543D01*
X2370Y539D01*
X2380Y538D01*
X2390Y539D01*
X2399Y543D01*
X2406Y549D01*
X2412Y556D01*
X2416Y565D01*
X2417Y575D01*
Y635D01*
X2416Y645D01*
X2412Y654D01*
X2406Y661D01*
X2399Y667D01*
X2390Y671D01*
X2380Y672D01*
D02*
G37*
G36*
X2065D02*
X2055Y671D01*
X2046Y667D01*
X2039Y661D01*
X2033Y654D01*
X2029Y645D01*
X2028Y635D01*
Y575D01*
X2029Y565D01*
X2033Y556D01*
X2039Y549D01*
X2046Y543D01*
X2055Y539D01*
X2065Y538D01*
X2075Y539D01*
X2084Y543D01*
X2091Y549D01*
X2097Y556D01*
X2101Y565D01*
X2102Y575D01*
Y635D01*
X2101Y645D01*
X2097Y654D01*
X2091Y661D01*
X2084Y667D01*
X2075Y671D01*
X2065Y672D01*
D02*
G37*
G36*
X1965D02*
X1955Y671D01*
X1946Y667D01*
X1939Y661D01*
X1933Y654D01*
X1929Y645D01*
X1928Y635D01*
Y575D01*
X1929Y565D01*
X1933Y556D01*
X1939Y549D01*
X1946Y543D01*
X1955Y539D01*
X1965Y538D01*
X1975Y539D01*
X1984Y543D01*
X1991Y549D01*
X1997Y556D01*
X2001Y565D01*
X2002Y575D01*
Y635D01*
X2001Y645D01*
X1997Y654D01*
X1991Y661D01*
X1984Y667D01*
X1975Y671D01*
X1965Y672D01*
D02*
G37*
G36*
X2895D02*
X2885Y671D01*
X2876Y667D01*
X2869Y661D01*
X2863Y654D01*
X2859Y645D01*
X2858Y635D01*
Y575D01*
X2859Y565D01*
X2863Y556D01*
X2869Y549D01*
X2876Y543D01*
X2885Y539D01*
X2895Y538D01*
X2905Y539D01*
X2914Y543D01*
X2921Y549D01*
X2927Y556D01*
X2931Y565D01*
X2932Y575D01*
Y635D01*
X2931Y645D01*
X2927Y654D01*
X2921Y661D01*
X2914Y667D01*
X2905Y671D01*
X2895Y672D01*
D02*
G37*
G36*
X2795D02*
X2785Y671D01*
X2776Y667D01*
X2769Y661D01*
X2763Y654D01*
X2759Y645D01*
X2758Y635D01*
Y575D01*
X2759Y565D01*
X2763Y556D01*
X2769Y549D01*
X2776Y543D01*
X2785Y539D01*
X2795Y538D01*
X2805Y539D01*
X2814Y543D01*
X2821Y549D01*
X2827Y556D01*
X2831Y565D01*
X2832Y575D01*
Y635D01*
X2831Y645D01*
X2827Y654D01*
X2821Y661D01*
X2814Y667D01*
X2805Y671D01*
X2795Y672D01*
D02*
G37*
G36*
X2480D02*
X2470Y671D01*
X2461Y667D01*
X2454Y661D01*
X2448Y654D01*
X2444Y645D01*
X2443Y635D01*
Y575D01*
X2444Y565D01*
X2448Y556D01*
X2454Y549D01*
X2461Y543D01*
X2470Y539D01*
X2480Y538D01*
X2490Y539D01*
X2499Y543D01*
X2506Y549D01*
X2512Y556D01*
X2516Y565D01*
X2517Y575D01*
Y635D01*
X2516Y645D01*
X2512Y654D01*
X2506Y661D01*
X2499Y667D01*
X2490Y671D01*
X2480Y672D01*
D02*
G37*
%LPD*%
D26*
X1419Y785D02*
X1665D01*
X875Y385D02*
X930Y330D01*
Y185D02*
Y330D01*
X510Y195D02*
Y285D01*
X610Y385D01*
X875D01*
X835Y40D02*
X930Y135D01*
X695Y40D02*
X835D01*
X690Y37D02*
X693Y40D01*
X695D01*
D27*
X700Y175D02*
X725Y150D01*
X700Y175D02*
Y200D01*
X645Y135D02*
X700D01*
X630Y150D02*
X645Y135D01*
X630Y150D02*
Y250D01*
X605Y275D02*
X630Y250D01*
X1533Y425D02*
X1563Y455D01*
X1655D01*
X1355Y435D02*
X1400D01*
X1443Y478D01*
X695Y40D02*
Y90D01*
X725Y120D01*
Y150D01*
X690Y35D02*
X695Y40D01*
D28*
X1705Y410D02*
X1715Y420D01*
Y435D01*
X1705Y385D02*
Y410D01*
Y385D02*
X1725Y365D01*
X1760D01*
X1645Y505D02*
X1715Y435D01*
X1395Y505D02*
X1395Y505D01*
X1645D01*
X1716Y455D02*
X1730D01*
X1651Y520D02*
X1716Y455D01*
X1400Y520D02*
X1651D01*
X1730Y395D02*
Y455D01*
X1375Y505D02*
X1395D01*
X1370Y550D02*
X1400Y520D01*
X1330Y550D02*
X1370D01*
X1260Y520D02*
X1360D01*
X1375Y505D01*
D30*
X2065Y605D02*
D03*
X1965D02*
D03*
X1865D02*
D03*
X2480D02*
D03*
X2380D02*
D03*
X2280D02*
D03*
X2895D02*
D03*
X2795D02*
D03*
X2695D02*
D03*
X3110Y365D02*
D03*
X3210D02*
D03*
X3310D02*
D03*
X1865D02*
D03*
X1965D02*
D03*
X2065D02*
D03*
X3310Y605D02*
D03*
X3210D02*
D03*
X3110D02*
D03*
X2280Y365D02*
D03*
X2380D02*
D03*
X2480D02*
D03*
X2695D02*
D03*
X2795D02*
D03*
X2895D02*
D03*
D31*
X510Y195D02*
D03*
Y775D02*
D03*
D32*
Y95D02*
D03*
Y475D02*
D03*
Y675D02*
D03*
Y575D02*
D03*
D33*
X3540Y200D02*
D03*
X1000Y700D02*
D03*
D34*
X3540Y455D02*
D03*
Y555D02*
D03*
Y655D02*
D03*
D35*
X770Y159D02*
D03*
Y191D02*
D03*
X700Y135D02*
D03*
Y200D02*
D03*
X690Y35D02*
D03*
X605Y275D02*
D03*
X1533Y425D02*
D03*
X1448Y435D02*
D03*
X1730Y395D02*
D03*
X1760Y365D02*
D03*
X1419Y785D02*
D03*
X1355Y435D02*
D03*
X1280Y395D02*
D03*
X1643Y301D02*
D03*
X1599D02*
D03*
X1643Y344D02*
D03*
X1599D02*
D03*
X1655Y455D02*
D03*
X1445Y480D02*
D03*
X1475Y545D02*
D03*
X1665Y785D02*
D03*
X1330Y550D02*
D03*
X1260Y520D02*
D03*
X1275Y735D02*
D03*
Y585D02*
D03*
X750Y300D02*
D03*
X965D02*
D03*
X760Y760D02*
D03*
X670Y765D02*
D03*
X660Y560D02*
D03*
X820Y530D02*
D03*
X1505Y315D02*
D03*
X430Y50D02*
D03*
X340D02*
D03*
X250D02*
D03*
X145Y85D02*
D03*
X80Y150D02*
D03*
X50Y235D02*
D03*
X45Y330D02*
D03*
Y410D02*
D03*
Y505D02*
D03*
Y590D02*
D03*
X65Y690D02*
D03*
X105Y755D02*
D03*
X170Y810D02*
D03*
X245Y825D02*
D03*
X330D02*
D03*
X425D02*
D03*
X510Y835D02*
D03*
X610D02*
D03*
X680D02*
D03*
X130Y410D02*
D03*
X220D02*
D03*
X315D02*
D03*
X415D02*
D03*
X505D02*
D03*
X130Y330D02*
D03*
X220D02*
D03*
X310D02*
D03*
X415Y325D02*
D03*
X500D02*
D03*
X1655Y835D02*
D03*
X1740D02*
D03*
X1825D02*
D03*
X1910D02*
D03*
X1995D02*
D03*
X2080D02*
D03*
X2165D02*
D03*
X2250D02*
D03*
X2335D02*
D03*
X2420D02*
D03*
X2505D02*
D03*
X2590D02*
D03*
X2675D02*
D03*
X2760D02*
D03*
X2845D02*
D03*
X2930D02*
D03*
X3015D02*
D03*
X3100D02*
D03*
X3185D02*
D03*
X3270D02*
D03*
X3355D02*
D03*
X3440D02*
D03*
X3525D02*
D03*
X3595Y795D02*
D03*
X1645Y85D02*
D03*
X1725D02*
D03*
X1805D02*
D03*
X1885D02*
D03*
X1965D02*
D03*
X2045D02*
D03*
X2125D02*
D03*
X2205D02*
D03*
X2285D02*
D03*
X2365D02*
D03*
X2445D02*
D03*
X2525D02*
D03*
X2605D02*
D03*
X2685D02*
D03*
X2765D02*
D03*
X2845D02*
D03*
X2925D02*
D03*
X3005D02*
D03*
X3085D02*
D03*
X3165D02*
D03*
X3245D02*
D03*
X3325D02*
D03*
Y165D02*
D03*
X1555Y85D02*
D03*
X1450D02*
D03*
X1335D02*
D03*
X1555Y160D02*
D03*
X1355Y255D02*
D03*
X1415Y320D02*
D03*
Y255D02*
D03*
X1110Y440D02*
D03*
X1225D02*
D03*
Y295D02*
D03*
X1110D02*
D03*
X965Y425D02*
D03*
X750Y430D02*
D03*
X850Y425D02*
D03*
Y295D02*
D03*
X1215Y735D02*
D03*
X1210Y590D02*
D03*
X1110D02*
D03*
X1140Y780D02*
D03*
X1210Y670D02*
D03*
X1680Y665D02*
D03*
Y570D02*
D03*
X1865Y485D02*
D03*
X2065D02*
D03*
X2280D02*
D03*
X2480D02*
D03*
X2895D02*
D03*
X2695D02*
D03*
X3110D02*
D03*
X3310D02*
D03*
X3420Y655D02*
D03*
Y555D02*
D03*
X3005Y605D02*
D03*
Y365D02*
D03*
X2590D02*
D03*
X2595Y485D02*
D03*
Y605D02*
D03*
X2175D02*
D03*
Y365D02*
D03*
Y485D02*
D03*
X3005D02*
D03*
X3420D02*
D03*
X2795Y245D02*
D03*
X2690D02*
D03*
X2885D02*
D03*
X2380Y275D02*
D03*
X2435Y290D02*
D03*
X2285Y275D02*
D03*
X1800Y350D02*
D03*
X1915Y305D02*
D03*
X2015D02*
D03*
X1655Y730D02*
D03*
X1765Y665D02*
D03*
Y570D02*
D03*
X3660Y750D02*
D03*
X3705Y650D02*
D03*
Y575D02*
D03*
Y505D02*
D03*
Y435D02*
D03*
Y360D02*
D03*
Y290D02*
D03*
Y215D02*
D03*
X3670Y145D02*
D03*
X3625Y95D02*
D03*
X3560Y55D02*
D03*
X3495Y45D02*
D03*
X3425D02*
D03*
D36*
X930Y135D02*
D03*
X1180Y185D02*
D03*
X1280D02*
D03*
X930D02*
D03*
M02*
