G04 Layer_Color=32896*
%FSLAX23Y23*%
%MOIN*%
G70*
G01*
G75*
G36*
X994Y133D02*
X997Y133D01*
X998Y132D01*
X1000Y132D01*
X1001Y131D01*
X1002Y130D01*
X1003Y130D01*
X1003Y129D01*
Y131D01*
X1003Y132D01*
Y132D01*
X1003Y132D01*
X1004Y133D01*
X1011D01*
X1011Y133D01*
X1012Y132D01*
X1012Y132D01*
Y132D01*
Y93D01*
X1012Y92D01*
X1011Y91D01*
X1011Y91D01*
X1004D01*
X1003Y91D01*
X1003Y92D01*
Y92D01*
Y93D01*
Y117D01*
X1003Y120D01*
X1002Y122D01*
X1000Y123D01*
X999Y124D01*
X998Y124D01*
X996Y125D01*
X995Y125D01*
X995D01*
X993Y125D01*
X992Y124D01*
X990Y124D01*
X990Y123D01*
X989D01*
X984Y130D01*
X984Y131D01*
X986Y132D01*
X987Y132D01*
X988Y133D01*
X989Y133D01*
X990Y133D01*
X993D01*
X994Y133D01*
D02*
G37*
G36*
X1176D02*
X1178Y133D01*
X1181Y131D01*
X1183Y130D01*
X1184Y130D01*
X1184Y129D01*
X1184Y129D01*
Y130D01*
X1184Y131D01*
X1185Y132D01*
Y132D01*
X1185Y133D01*
X1192D01*
X1192Y133D01*
X1192Y132D01*
X1193Y132D01*
Y132D01*
Y93D01*
X1192Y92D01*
X1192Y91D01*
X1192Y91D01*
X1186D01*
X1185Y91D01*
X1184Y92D01*
X1184Y92D01*
Y93D01*
Y113D01*
Y116D01*
X1184Y117D01*
X1183Y120D01*
X1182Y122D01*
X1180Y123D01*
X1179Y124D01*
X1177Y125D01*
X1176Y125D01*
X1176D01*
X1173Y124D01*
X1171Y123D01*
X1170Y123D01*
X1169Y121D01*
X1168Y120D01*
X1168Y119D01*
Y119D01*
Y118D01*
Y93D01*
X1168Y92D01*
X1168Y91D01*
X1167Y91D01*
X1160D01*
X1160Y91D01*
X1159Y92D01*
Y92D01*
Y93D01*
Y118D01*
Y120D01*
X1159Y121D01*
X1160Y123D01*
Y123D01*
X1161Y126D01*
X1163Y129D01*
X1166Y131D01*
X1168Y132D01*
X1170Y133D01*
X1171Y133D01*
X1173Y133D01*
X1175D01*
X1176Y133D01*
D02*
G37*
G36*
X1122Y133D02*
X1124Y132D01*
X1126Y132D01*
X1128Y131D01*
X1129Y130D01*
X1130Y129D01*
X1132Y127D01*
X1133Y125D01*
X1133Y123D01*
X1134Y123D01*
Y122D01*
Y120D01*
X1133Y117D01*
X1133Y116D01*
X1132Y114D01*
X1130Y112D01*
X1129Y111D01*
X1128Y111D01*
X1127Y110D01*
X1127Y110D01*
X1124Y109D01*
X1121Y109D01*
X1119Y108D01*
X1117Y108D01*
X1115Y108D01*
X1114Y108D01*
X1112Y107D01*
X1112Y107D01*
X1110Y106D01*
X1110Y106D01*
X1110Y105D01*
Y102D01*
X1110Y101D01*
X1112Y100D01*
X1113Y100D01*
X1114Y99D01*
X1115Y99D01*
X1116Y99D01*
X1117D01*
X1120Y99D01*
X1122Y100D01*
X1125Y101D01*
X1127Y101D01*
X1128Y102D01*
X1130Y103D01*
X1130Y104D01*
X1130Y104D01*
X1133Y102D01*
X1134Y101D01*
X1135Y100D01*
X1135Y99D01*
X1136Y99D01*
X1136Y98D01*
Y98D01*
X1133Y96D01*
X1130Y94D01*
X1128Y93D01*
X1125Y92D01*
X1122Y91D01*
X1121Y91D01*
X1120Y91D01*
X1116D01*
X1113Y91D01*
X1111Y92D01*
X1109Y93D01*
X1107Y94D01*
X1105Y94D01*
X1104Y95D01*
X1102Y98D01*
X1101Y100D01*
X1101Y101D01*
X1100Y102D01*
Y103D01*
Y104D01*
X1101Y106D01*
X1102Y109D01*
X1103Y111D01*
X1105Y113D01*
X1106Y114D01*
X1107Y115D01*
X1108Y115D01*
X1109Y116D01*
X1112Y116D01*
X1114Y116D01*
X1116Y116D01*
X1118Y117D01*
X1120Y117D01*
X1121Y117D01*
X1123Y118D01*
X1124Y119D01*
X1125Y119D01*
X1125Y120D01*
Y120D01*
X1125Y122D01*
X1124Y123D01*
X1123Y124D01*
X1122Y125D01*
X1121Y125D01*
X1120Y125D01*
X1118D01*
X1116Y125D01*
X1114Y125D01*
X1112Y124D01*
X1110Y124D01*
X1109Y123D01*
X1108Y123D01*
X1107Y122D01*
X1107Y122D01*
X1107D01*
X1105Y123D01*
X1104Y125D01*
X1103Y126D01*
X1102Y127D01*
X1102Y128D01*
Y129D01*
X1105Y130D01*
X1107Y132D01*
X1110Y132D01*
X1112Y133D01*
X1114Y133D01*
X1115Y133D01*
X1120D01*
X1122Y133D01*
D02*
G37*
G36*
X1301Y133D02*
X1303Y133D01*
X1304Y133D01*
X1304Y132D01*
X1308Y131D01*
X1311Y128D01*
X1312Y125D01*
X1314Y122D01*
X1314Y120D01*
X1315Y117D01*
X1315Y116D01*
Y116D01*
Y116D01*
Y109D01*
Y107D01*
X1315Y105D01*
X1314Y104D01*
Y103D01*
Y103D01*
X1314Y101D01*
X1312Y99D01*
X1311Y97D01*
X1310Y96D01*
X1308Y94D01*
X1305Y92D01*
X1303Y91D01*
X1301Y91D01*
X1299Y91D01*
X1296D01*
X1294Y91D01*
X1293Y91D01*
X1291Y91D01*
X1291Y92D01*
X1291D01*
X1289Y93D01*
X1287Y94D01*
X1285Y97D01*
X1283Y100D01*
X1281Y104D01*
X1281Y107D01*
X1281Y109D01*
X1280Y111D01*
Y111D01*
Y112D01*
Y112D01*
Y113D01*
X1281Y116D01*
X1281Y119D01*
X1282Y122D01*
X1283Y124D01*
X1284Y126D01*
X1285Y127D01*
X1288Y130D01*
X1291Y132D01*
X1293Y133D01*
X1294Y133D01*
X1295D01*
X1295Y133D01*
X1299D01*
X1301Y133D01*
D02*
G37*
G36*
X969D02*
X971Y133D01*
X972Y133D01*
X972Y132D01*
X975Y132D01*
X976Y130D01*
X978Y129D01*
X979Y127D01*
X982Y124D01*
X983Y121D01*
X984Y117D01*
X984Y115D01*
X984Y114D01*
Y113D01*
Y113D01*
Y112D01*
X984Y109D01*
X984Y107D01*
X984Y105D01*
Y105D01*
X984Y104D01*
Y104D01*
X983Y102D01*
X982Y100D01*
X980Y98D01*
X979Y96D01*
X976Y94D01*
X973Y93D01*
X970Y91D01*
X969Y91D01*
X967Y91D01*
X965D01*
X961Y91D01*
X959Y92D01*
X957Y93D01*
X955Y94D01*
X953Y95D01*
X952Y97D01*
X951Y97D01*
X951Y98D01*
Y98D01*
X951Y99D01*
X952Y100D01*
X952Y100D01*
X953Y101D01*
X955Y102D01*
X956Y103D01*
X956Y103D01*
X956Y104D01*
X958Y102D01*
X960Y101D01*
X961Y100D01*
X962Y100D01*
X963Y100D01*
X964Y99D01*
X965D01*
X966Y100D01*
X968Y100D01*
X971Y101D01*
X973Y104D01*
X975Y106D01*
X975Y108D01*
X976Y111D01*
X976Y112D01*
Y112D01*
Y112D01*
X976Y115D01*
X975Y117D01*
X975Y118D01*
X974Y120D01*
X973Y122D01*
X971Y123D01*
X969Y124D01*
X967Y125D01*
X966Y125D01*
X965D01*
X964Y125D01*
X962Y124D01*
X959Y123D01*
X958Y122D01*
X957Y122D01*
X957Y121D01*
X956Y121D01*
X955Y122D01*
X953Y123D01*
X952Y124D01*
X952Y125D01*
X951Y126D01*
X951Y126D01*
Y127D01*
X953Y129D01*
X955Y131D01*
X957Y132D01*
X960Y133D01*
X961Y133D01*
X962Y133D01*
X966D01*
X969Y133D01*
D02*
G37*
G36*
X1054Y133D02*
X1054Y132D01*
X1054Y132D01*
Y132D01*
Y106D01*
X1054Y104D01*
X1054Y102D01*
X1053Y98D01*
X1051Y95D01*
X1048Y94D01*
X1046Y92D01*
X1043Y91D01*
X1042Y91D01*
X1042Y91D01*
X1040D01*
X1037Y91D01*
X1035Y91D01*
X1033Y92D01*
X1032Y93D01*
X1031Y94D01*
X1030Y95D01*
X1030Y95D01*
Y95D01*
X1029D01*
Y94D01*
X1029Y93D01*
Y92D01*
X1029Y92D01*
X1028Y91D01*
X1022D01*
X1021Y91D01*
X1021Y92D01*
X1021Y92D01*
Y93D01*
Y132D01*
X1021Y132D01*
X1021Y133D01*
X1022Y133D01*
X1028D01*
X1029Y133D01*
X1029Y132D01*
X1029Y132D01*
Y132D01*
Y108D01*
X1030Y105D01*
X1031Y103D01*
X1031Y102D01*
X1033Y101D01*
X1034Y100D01*
X1036Y100D01*
X1036Y99D01*
X1038D01*
X1040Y100D01*
X1042Y101D01*
X1043Y102D01*
X1044Y104D01*
X1045Y105D01*
X1046Y106D01*
X1046Y108D01*
Y108D01*
Y132D01*
X1046Y132D01*
X1046Y133D01*
X1046Y133D01*
X1054D01*
X1054Y133D01*
D02*
G37*
G36*
X936D02*
X938Y132D01*
X940Y131D01*
X942Y129D01*
X943Y128D01*
X944Y126D01*
X946Y123D01*
X947Y119D01*
X948Y117D01*
X948Y116D01*
Y115D01*
Y114D01*
Y114D01*
Y110D01*
Y108D01*
X948Y106D01*
X947Y105D01*
Y105D01*
Y105D01*
X947Y102D01*
X946Y100D01*
X945Y98D01*
X943Y97D01*
X941Y94D01*
X938Y93D01*
X936Y91D01*
X933Y91D01*
X932Y91D01*
X928D01*
X925Y91D01*
X923Y92D01*
X920Y93D01*
X919Y94D01*
X917Y95D01*
X916Y96D01*
X915Y97D01*
X915Y97D01*
Y98D01*
X915Y98D01*
X916Y99D01*
X918Y101D01*
X919Y101D01*
X919Y102D01*
X920Y102D01*
X920Y102D01*
X921D01*
X923Y101D01*
X924Y100D01*
X926Y100D01*
X927Y99D01*
X928Y99D01*
X929Y99D01*
X930D01*
X933Y99D01*
X935Y100D01*
X937Y102D01*
X938Y104D01*
X939Y105D01*
X939Y107D01*
X940Y108D01*
Y108D01*
Y109D01*
X915D01*
X915Y109D01*
X914Y109D01*
X914Y109D01*
Y110D01*
Y122D01*
X915Y123D01*
X916Y125D01*
X919Y128D01*
X921Y131D01*
X924Y132D01*
X926Y133D01*
X928Y133D01*
X928Y133D01*
X933D01*
X936Y133D01*
D02*
G37*
G36*
X1223D02*
X1225Y132D01*
X1227Y130D01*
X1229Y128D01*
X1231Y125D01*
X1233Y121D01*
X1234Y118D01*
X1234Y115D01*
X1235Y114D01*
Y113D01*
Y112D01*
Y112D01*
Y111D01*
X1234Y108D01*
X1234Y106D01*
X1234Y105D01*
Y104D01*
X1234Y103D01*
Y103D01*
X1232Y101D01*
X1232Y99D01*
X1230Y97D01*
X1229Y96D01*
X1226Y94D01*
X1224Y92D01*
X1221Y91D01*
X1219Y91D01*
X1217Y91D01*
X1214D01*
X1212Y91D01*
X1209Y92D01*
X1207Y93D01*
X1205Y94D01*
X1203Y95D01*
X1202Y96D01*
X1202Y97D01*
X1201Y97D01*
Y98D01*
X1202Y98D01*
X1202Y99D01*
X1204Y101D01*
X1206Y102D01*
X1206Y102D01*
X1207Y102D01*
X1207D01*
X1209Y101D01*
X1210Y100D01*
X1212Y100D01*
X1213Y99D01*
X1214Y99D01*
X1215Y99D01*
X1216D01*
X1219Y99D01*
X1221Y100D01*
X1223Y102D01*
X1224Y104D01*
X1225Y105D01*
X1226Y107D01*
X1226Y108D01*
Y109D01*
X1201D01*
X1200Y109D01*
X1200Y109D01*
Y109D01*
Y110D01*
Y115D01*
Y117D01*
X1200Y119D01*
X1200Y119D01*
Y120D01*
X1201Y122D01*
X1202Y124D01*
X1203Y126D01*
X1204Y128D01*
X1207Y130D01*
X1210Y132D01*
X1212Y133D01*
X1214Y133D01*
X1216Y133D01*
X1221D01*
X1223Y133D01*
D02*
G37*
G36*
X1082Y133D02*
X1084Y133D01*
X1086Y132D01*
X1086Y132D01*
X1087Y132D01*
X1087D01*
X1090Y130D01*
X1092Y127D01*
X1094Y123D01*
X1095Y120D01*
X1096Y117D01*
X1096Y115D01*
X1096Y113D01*
Y113D01*
Y112D01*
Y112D01*
X1096Y109D01*
X1096Y107D01*
Y106D01*
Y105D01*
Y105D01*
Y105D01*
X1095Y102D01*
X1094Y100D01*
X1093Y98D01*
X1092Y97D01*
X1089Y94D01*
X1087Y93D01*
X1084Y91D01*
X1083Y91D01*
X1082Y91D01*
X1078D01*
X1075Y91D01*
X1073Y91D01*
X1071Y93D01*
X1069Y94D01*
X1066Y97D01*
X1064Y100D01*
X1063Y103D01*
X1062Y106D01*
X1062Y107D01*
X1061Y108D01*
Y108D01*
Y109D01*
Y116D01*
X1062Y119D01*
X1062Y122D01*
X1064Y124D01*
X1065Y126D01*
X1066Y128D01*
X1067Y129D01*
X1069Y130D01*
X1070Y131D01*
X1073Y132D01*
X1076Y133D01*
X1076Y133D01*
X1079D01*
X1082Y133D01*
D02*
G37*
G36*
X1174Y67D02*
X1176Y67D01*
X1178Y66D01*
X1179Y65D01*
X1181Y64D01*
X1182Y64D01*
X1183Y63D01*
X1183Y63D01*
Y64D01*
X1183Y65D01*
Y66D01*
X1183Y67D01*
X1184Y67D01*
X1190D01*
X1191Y67D01*
X1191Y67D01*
X1191Y66D01*
Y66D01*
Y26D01*
X1191Y25D01*
X1191Y25D01*
X1191Y25D01*
X1184D01*
X1183Y25D01*
X1183Y25D01*
Y26D01*
Y26D01*
Y49D01*
X1183Y52D01*
X1181Y55D01*
X1180Y57D01*
X1179Y58D01*
X1177Y59D01*
X1176Y59D01*
X1174Y59D01*
X1174D01*
X1173Y59D01*
X1171Y58D01*
X1169Y57D01*
X1169Y57D01*
X1169D01*
X1169Y57D01*
X1168Y58D01*
X1167Y59D01*
X1166Y60D01*
X1165Y62D01*
X1164Y63D01*
X1163Y64D01*
X1163Y64D01*
Y65D01*
X1167Y67D01*
X1169Y67D01*
X1170Y68D01*
X1171D01*
X1174Y67D01*
D02*
G37*
G36*
X979D02*
X980Y67D01*
X981D01*
X983Y66D01*
X985Y65D01*
X987Y64D01*
X988Y62D01*
X991Y58D01*
X992Y55D01*
X993Y52D01*
X994Y49D01*
X994Y47D01*
Y47D01*
Y46D01*
Y46D01*
X994Y44D01*
X993Y43D01*
Y43D01*
Y43D01*
X993Y40D01*
X992Y37D01*
X991Y34D01*
X990Y32D01*
X989Y31D01*
X988Y29D01*
X986Y28D01*
X984Y27D01*
X982Y26D01*
X979Y25D01*
X978Y25D01*
X972D01*
X970Y25D01*
X967Y26D01*
X965Y27D01*
X964Y28D01*
X962Y29D01*
X961Y30D01*
X961Y31D01*
X960Y31D01*
X962Y33D01*
X964Y35D01*
X965Y36D01*
X966Y36D01*
X966D01*
X968Y35D01*
X969Y34D01*
X971Y34D01*
X972Y33D01*
X973Y33D01*
X974Y33D01*
X977D01*
X979Y33D01*
X981Y34D01*
X983Y36D01*
X984Y37D01*
X984Y39D01*
X985Y40D01*
X985Y41D01*
Y42D01*
Y43D01*
X960D01*
X960Y43D01*
X959Y43D01*
Y43D01*
Y44D01*
Y51D01*
X960Y53D01*
X960Y56D01*
X961Y58D01*
X962Y60D01*
X965Y62D01*
X967Y64D01*
X971Y66D01*
X973Y67D01*
X975Y67D01*
X975Y68D01*
X978D01*
X979Y67D01*
D02*
G37*
G36*
X1005D02*
X1007Y67D01*
X1010Y65D01*
X1012Y64D01*
X1013Y64D01*
X1013Y63D01*
X1013Y63D01*
Y64D01*
X1014Y65D01*
Y66D01*
X1014Y67D01*
X1014Y67D01*
X1021D01*
X1021Y67D01*
X1022Y67D01*
X1022Y66D01*
Y66D01*
Y26D01*
X1022Y25D01*
X1021Y25D01*
X1021Y25D01*
X1015D01*
X1014Y25D01*
X1013Y25D01*
Y26D01*
Y26D01*
Y51D01*
X1013Y53D01*
X1012Y55D01*
X1011Y57D01*
X1009Y58D01*
X1008Y58D01*
X1006Y59D01*
X1005Y59D01*
X1005D01*
X1003Y59D01*
X1002Y58D01*
X1000Y57D01*
X1000Y57D01*
X1000D01*
X994Y64D01*
X995Y65D01*
X996Y66D01*
X999Y67D01*
X1000Y67D01*
X1001Y68D01*
X1003D01*
X1005Y67D01*
D02*
G37*
G36*
X1138Y84D02*
X1138Y83D01*
X1138Y83D01*
Y83D01*
Y63D01*
X1140Y64D01*
X1142Y65D01*
X1143Y66D01*
X1145Y67D01*
X1146Y67D01*
X1147Y68D01*
X1148D01*
X1151Y67D01*
X1153Y67D01*
X1155Y66D01*
X1156Y65D01*
X1158Y64D01*
X1159Y62D01*
X1161Y60D01*
X1162Y57D01*
X1163Y54D01*
X1163Y53D01*
Y52D01*
Y52D01*
Y52D01*
Y39D01*
X1162Y36D01*
X1162Y34D01*
X1161Y32D01*
X1160Y31D01*
X1158Y29D01*
X1156Y27D01*
X1154Y26D01*
X1152Y25D01*
X1151Y25D01*
X1146D01*
X1145Y25D01*
X1143Y26D01*
X1141Y27D01*
X1140Y28D01*
X1139Y29D01*
X1138Y29D01*
X1138Y29D01*
Y28D01*
X1138Y27D01*
Y26D01*
X1138Y25D01*
X1137Y25D01*
X1130D01*
X1130Y25D01*
X1129Y25D01*
Y26D01*
Y26D01*
Y83D01*
X1129Y83D01*
X1130Y84D01*
X1130Y84D01*
X1137D01*
X1138Y84D01*
D02*
G37*
G36*
X1222Y67D02*
X1224Y67D01*
X1227Y66D01*
X1229Y65D01*
X1230Y64D01*
X1231Y63D01*
X1232Y62D01*
X1232Y62D01*
X1230Y59D01*
X1227Y58D01*
X1226Y57D01*
X1226Y56D01*
X1225D01*
X1224Y58D01*
X1224Y58D01*
X1222Y59D01*
X1221Y59D01*
X1214D01*
X1212Y59D01*
X1211Y58D01*
X1210Y58D01*
X1210Y57D01*
X1209Y56D01*
Y55D01*
Y55D01*
Y50D01*
X1214D01*
X1218Y50D01*
X1221Y50D01*
X1224Y49D01*
X1226Y48D01*
X1228Y47D01*
X1230Y46D01*
X1231Y45D01*
X1232Y44D01*
X1234Y41D01*
X1234Y40D01*
X1235Y38D01*
Y38D01*
Y38D01*
X1234Y35D01*
X1233Y34D01*
X1232Y32D01*
X1232Y30D01*
X1230Y28D01*
X1227Y26D01*
X1225Y26D01*
X1224Y25D01*
X1223Y25D01*
X1216D01*
X1215Y25D01*
X1213Y25D01*
X1211Y26D01*
X1210Y27D01*
X1209Y28D01*
X1209D01*
Y27D01*
X1209Y26D01*
X1209Y25D01*
X1208Y25D01*
X1201D01*
X1201Y25D01*
X1200Y25D01*
Y26D01*
Y26D01*
Y52D01*
X1201Y55D01*
X1201Y57D01*
X1202Y59D01*
X1203Y61D01*
X1204Y62D01*
X1206Y64D01*
X1209Y65D01*
X1212Y67D01*
X1214Y67D01*
X1215Y68D01*
X1218D01*
X1222Y67D01*
D02*
G37*
G36*
X1257Y133D02*
X1259Y133D01*
X1262Y132D01*
X1263Y131D01*
X1264Y130D01*
X1265Y130D01*
X1265Y129D01*
Y131D01*
X1265Y132D01*
Y132D01*
X1265Y132D01*
X1266Y133D01*
X1273D01*
X1273Y133D01*
X1273Y132D01*
X1273Y132D01*
Y132D01*
Y26D01*
X1273Y25D01*
X1273Y25D01*
X1273Y25D01*
X1266D01*
X1265Y25D01*
X1265Y25D01*
Y26D01*
Y26D01*
Y50D01*
X1264Y53D01*
X1263Y56D01*
X1262Y57D01*
X1260Y58D01*
X1259Y59D01*
X1258Y59D01*
X1257Y59D01*
X1257D01*
X1255Y59D01*
X1253Y58D01*
X1251Y56D01*
X1250Y55D01*
X1250Y54D01*
X1249Y52D01*
X1249Y51D01*
Y51D01*
Y26D01*
X1248Y25D01*
X1248Y25D01*
X1248Y25D01*
X1241D01*
X1240Y25D01*
X1240Y25D01*
Y26D01*
Y26D01*
Y51D01*
X1240Y54D01*
X1241Y56D01*
X1242Y58D01*
X1242Y60D01*
X1243Y62D01*
X1245Y64D01*
X1247Y65D01*
X1250Y67D01*
X1252Y67D01*
X1253Y68D01*
X1253D01*
X1256Y67D01*
X1258Y67D01*
X1260Y66D01*
X1262Y65D01*
X1263Y64D01*
X1264Y64D01*
X1265Y63D01*
X1265Y63D01*
Y95D01*
X1263Y94D01*
X1262Y93D01*
X1260Y92D01*
X1258Y91D01*
X1257Y91D01*
X1256Y91D01*
X1254D01*
X1252Y91D01*
X1249Y92D01*
X1247Y93D01*
X1246Y94D01*
X1244Y95D01*
X1243Y97D01*
X1242Y101D01*
X1240Y105D01*
X1240Y108D01*
X1240Y109D01*
Y111D01*
Y111D01*
Y111D01*
Y115D01*
X1240Y117D01*
X1240Y120D01*
X1240Y122D01*
X1241Y123D01*
X1241Y124D01*
X1241Y125D01*
Y125D01*
X1243Y128D01*
X1245Y130D01*
X1247Y132D01*
X1249Y132D01*
X1251Y133D01*
X1253Y133D01*
X1255D01*
X1257Y133D01*
D02*
G37*
G36*
X1125Y67D02*
X1124Y64D01*
X1123Y61D01*
X1122Y58D01*
X1122Y56D01*
X1121Y55D01*
X1120Y54D01*
X1120Y52D01*
X1120Y52D01*
X1120Y50D01*
X1119Y49D01*
X1119Y49D01*
X1118Y45D01*
X1117Y41D01*
X1116Y38D01*
X1115Y35D01*
X1114Y33D01*
X1113Y31D01*
X1113Y29D01*
X1112Y28D01*
X1112Y27D01*
X1112Y26D01*
X1111Y25D01*
X1110Y25D01*
X1105D01*
X1104Y26D01*
X1104Y27D01*
X1103Y29D01*
X1102Y30D01*
X1102Y32D01*
X1101Y35D01*
X1099Y40D01*
X1098Y45D01*
X1097Y47D01*
X1097Y49D01*
X1097Y51D01*
X1096Y52D01*
X1096Y53D01*
Y53D01*
X1095D01*
X1094Y49D01*
X1092Y45D01*
X1091Y41D01*
X1090Y38D01*
X1089Y35D01*
X1089Y33D01*
X1088Y31D01*
X1087Y29D01*
X1087Y28D01*
X1087Y27D01*
X1086Y26D01*
X1086Y25D01*
Y25D01*
X1079D01*
X1079Y27D01*
X1078Y29D01*
X1077Y32D01*
X1076Y35D01*
X1075Y38D01*
X1074Y41D01*
X1071Y49D01*
X1070Y52D01*
X1069Y55D01*
X1068Y58D01*
X1067Y61D01*
X1067Y63D01*
X1066Y64D01*
X1066Y66D01*
Y66D01*
X1066Y67D01*
X1066Y67D01*
X1074D01*
X1074Y67D01*
X1074Y66D01*
X1075Y64D01*
X1076Y62D01*
X1076Y60D01*
X1077Y58D01*
X1079Y53D01*
X1080Y47D01*
X1080Y45D01*
X1081Y43D01*
X1081Y41D01*
X1082Y40D01*
X1082Y39D01*
Y38D01*
X1083D01*
X1084Y43D01*
X1086Y48D01*
X1087Y52D01*
X1088Y55D01*
X1089Y58D01*
X1090Y60D01*
X1090Y62D01*
X1091Y64D01*
X1092Y64D01*
X1092Y65D01*
X1092Y66D01*
Y67D01*
X1093Y67D01*
X1097D01*
X1098Y67D01*
X1098Y66D01*
X1099Y64D01*
X1099Y62D01*
X1100Y60D01*
X1101Y58D01*
X1103Y53D01*
X1105Y47D01*
X1105Y45D01*
X1106Y43D01*
X1107Y41D01*
X1107Y40D01*
X1107Y39D01*
Y38D01*
X1109D01*
X1110Y43D01*
X1111Y48D01*
X1112Y52D01*
X1113Y55D01*
X1113Y58D01*
X1114Y60D01*
X1115Y62D01*
X1115Y64D01*
X1115Y64D01*
X1116Y65D01*
X1116Y66D01*
X1117Y67D01*
X1117Y67D01*
X1124D01*
X1125Y67D01*
D02*
G37*
G36*
X1052Y67D02*
X1055Y67D01*
X1058Y66D01*
X1059Y65D01*
X1061Y64D01*
X1062Y63D01*
X1062Y62D01*
X1062Y62D01*
Y61D01*
X1061Y60D01*
X1059Y59D01*
X1059Y58D01*
X1058Y57D01*
X1056Y57D01*
X1056Y56D01*
X1055Y58D01*
X1054Y58D01*
X1053Y59D01*
X1052Y59D01*
X1044D01*
X1043Y59D01*
X1043Y59D01*
X1041Y58D01*
X1040Y56D01*
X1040Y56D01*
Y56D01*
Y50D01*
X1045D01*
X1048Y50D01*
X1052Y50D01*
X1054Y49D01*
X1057Y48D01*
X1059Y47D01*
X1060Y47D01*
X1062Y45D01*
X1063Y44D01*
X1064Y42D01*
X1065Y40D01*
X1065Y38D01*
Y38D01*
Y38D01*
X1065Y36D01*
X1064Y34D01*
X1063Y32D01*
X1062Y31D01*
X1061Y28D01*
X1058Y27D01*
X1056Y26D01*
X1054Y25D01*
X1054Y25D01*
X1047D01*
X1045Y25D01*
X1044Y25D01*
X1042Y26D01*
X1040Y27D01*
X1040Y28D01*
X1040D01*
Y27D01*
X1039Y26D01*
X1039Y25D01*
X1039Y25D01*
X1032D01*
X1031Y25D01*
X1031Y25D01*
Y26D01*
Y26D01*
Y50D01*
Y53D01*
X1031Y55D01*
X1031Y56D01*
Y57D01*
Y57D01*
X1032Y59D01*
X1032Y60D01*
X1033Y62D01*
X1034Y62D01*
X1037Y64D01*
X1039Y66D01*
X1043Y67D01*
X1045Y67D01*
X1046D01*
X1047Y68D01*
X1049D01*
X1052Y67D01*
D02*
G37*
G36*
X295Y739D02*
X302Y738D01*
X308Y737D01*
X314Y735D01*
X319Y734D01*
X323Y733D01*
X325Y732D01*
X326Y732D01*
X326Y731D01*
X327D01*
X334Y728D01*
X340Y724D01*
X347Y720D01*
X353Y716D01*
X358Y712D01*
X363Y707D01*
X372Y696D01*
X379Y686D01*
X386Y675D01*
X391Y664D01*
X395Y653D01*
X398Y643D01*
X401Y634D01*
X402Y624D01*
X404Y617D01*
X404Y610D01*
Y608D01*
X405Y606D01*
Y604D01*
Y602D01*
Y602D01*
Y601D01*
X404Y588D01*
X404Y574D01*
X403Y560D01*
X402Y548D01*
X401Y542D01*
X400Y536D01*
X400Y531D01*
X400Y527D01*
X399Y524D01*
Y521D01*
X399Y519D01*
Y519D01*
X398Y518D01*
X397Y517D01*
X396Y516D01*
X394Y514D01*
X388Y509D01*
X382Y505D01*
X376Y500D01*
X370Y496D01*
X368Y495D01*
X367Y493D01*
X366Y493D01*
X365Y492D01*
X365Y491D01*
X364Y490D01*
X362Y489D01*
X360Y488D01*
X357Y487D01*
X354Y486D01*
X348Y485D01*
X341Y483D01*
X339Y483D01*
X336Y483D01*
X334D01*
X332Y482D01*
X331D01*
Y495D01*
X329Y496D01*
X328Y497D01*
X325Y498D01*
X322Y499D01*
X318Y499D01*
X314Y500D01*
X306Y501D01*
X297Y502D01*
X293Y502D01*
X290Y503D01*
X287D01*
X285Y503D01*
X283D01*
X273Y503D01*
X263Y502D01*
X255Y501D01*
X248Y499D01*
X242Y498D01*
X240Y497D01*
X238Y497D01*
X236Y496D01*
X234Y496D01*
X234Y495D01*
X234D01*
Y484D01*
X233Y482D01*
X223Y483D01*
X219Y484D01*
X215Y485D01*
X212Y485D01*
X209Y486D01*
X208Y486D01*
X207D01*
X169Y516D01*
X168Y516D01*
X168Y516D01*
X167Y518D01*
X167Y519D01*
X166Y523D01*
X165Y528D01*
X165Y534D01*
X164Y540D01*
X163Y548D01*
X163Y555D01*
X162Y562D01*
Y569D01*
X162Y576D01*
X161Y581D01*
Y587D01*
X161Y591D01*
Y592D01*
Y593D01*
Y593D01*
Y594D01*
Y606D01*
X161Y615D01*
X162Y623D01*
X163Y632D01*
X165Y639D01*
X167Y647D01*
X169Y653D01*
X171Y660D01*
X173Y666D01*
X175Y671D01*
X177Y676D01*
X179Y680D01*
X181Y683D01*
X183Y686D01*
X183Y688D01*
X184Y689D01*
X185Y690D01*
X193Y698D01*
X200Y706D01*
X208Y713D01*
X216Y718D01*
X224Y723D01*
X232Y727D01*
X239Y730D01*
X246Y733D01*
X252Y735D01*
X258Y736D01*
X263Y737D01*
X268Y738D01*
X271Y739D01*
X274Y739D01*
X289D01*
X295Y739D01*
D02*
G37*
G36*
X290Y497D02*
X296Y497D01*
X302Y496D01*
X307Y495D01*
X311Y495D01*
X314Y494D01*
X318Y494D01*
X320Y493D01*
X322Y493D01*
X323Y492D01*
X325Y491D01*
X326Y491D01*
Y491D01*
Y471D01*
X325Y470D01*
X323Y469D01*
X321Y468D01*
X318Y468D01*
X315Y467D01*
X312Y466D01*
X304Y465D01*
X296Y464D01*
X292Y464D01*
X289D01*
X287Y464D01*
X283D01*
X276Y464D01*
X269Y464D01*
X264Y465D01*
X259Y465D01*
X255Y466D01*
X251Y466D01*
X248Y467D01*
X246Y468D01*
X244Y468D01*
X242Y469D01*
X240Y469D01*
X240Y470D01*
X239Y470D01*
Y475D01*
Y480D01*
X240Y485D01*
X240Y487D01*
Y489D01*
X240Y490D01*
Y491D01*
X241Y491D01*
X243Y492D01*
X245Y493D01*
X248Y494D01*
X251Y494D01*
X255Y495D01*
X263Y496D01*
X270Y497D01*
X273Y497D01*
X279D01*
X281Y497D01*
X283D01*
X290Y497D01*
D02*
G37*
G36*
X401Y505D02*
X405Y502D01*
X407Y499D01*
X410Y496D01*
X412Y494D01*
X414Y492D01*
X417Y489D01*
X419Y488D01*
X419Y487D01*
X420Y486D01*
X421Y487D01*
X422Y487D01*
X425Y487D01*
X428Y488D01*
X429D01*
X438Y486D01*
X444Y484D01*
X449Y481D01*
X453Y478D01*
X456Y475D01*
X460Y472D01*
X462Y469D01*
X464Y466D01*
X466Y462D01*
X468Y456D01*
X470Y452D01*
Y450D01*
X470Y448D01*
Y447D01*
Y447D01*
X470Y443D01*
X469Y440D01*
X469Y438D01*
X468Y437D01*
X443Y461D01*
X438Y456D01*
X434Y452D01*
X430Y448D01*
X427Y445D01*
X423Y442D01*
X421Y439D01*
X419Y437D01*
X418Y436D01*
X415Y434D01*
X414Y432D01*
X414Y432D01*
X437Y407D01*
Y406D01*
X434D01*
X432Y405D01*
X430Y405D01*
X429D01*
X425Y405D01*
X422Y406D01*
X420Y406D01*
X418Y407D01*
X416Y407D01*
X415Y408D01*
X414Y408D01*
X414D01*
X409Y411D01*
X405Y413D01*
X402Y417D01*
X398Y419D01*
X396Y423D01*
X394Y426D01*
X390Y432D01*
X389Y437D01*
X388Y442D01*
X387Y444D01*
Y445D01*
Y446D01*
Y446D01*
X388Y449D01*
X388Y452D01*
Y454D01*
Y454D01*
Y455D01*
X363Y481D01*
X363Y482D01*
X365Y483D01*
X366Y485D01*
X369Y487D01*
X374Y491D01*
X381Y496D01*
X387Y501D01*
X392Y505D01*
X394Y507D01*
X396Y508D01*
X397Y509D01*
X397Y509D01*
X401Y505D01*
D02*
G37*
G36*
X144Y792D02*
X146Y791D01*
X147D01*
X152Y789D01*
X157Y786D01*
X161Y783D01*
X165Y780D01*
X168Y777D01*
X170Y774D01*
X172Y771D01*
X174Y768D01*
X176Y762D01*
X177Y757D01*
Y755D01*
X178Y754D01*
Y753D01*
Y753D01*
Y746D01*
X177Y741D01*
X181Y737D01*
X185Y734D01*
X188Y731D01*
X191Y728D01*
X193Y725D01*
X195Y723D01*
X198Y721D01*
X200Y719D01*
X201Y718D01*
X201Y717D01*
Y716D01*
X197Y712D01*
X195Y709D01*
X192Y707D01*
X191Y705D01*
X190Y704D01*
X189Y704D01*
X189Y704D01*
X174Y684D01*
X169Y688D01*
X165Y692D01*
X161Y696D01*
X158Y699D01*
X156Y701D01*
X154Y704D01*
X150Y707D01*
X148Y709D01*
X147Y710D01*
X147Y710D01*
X145D01*
X142Y710D01*
X139Y710D01*
X135D01*
X132Y710D01*
X130Y710D01*
X128D01*
X123Y713D01*
X118Y715D01*
X113Y718D01*
X110Y721D01*
X107Y724D01*
X104Y727D01*
X102Y731D01*
X100Y734D01*
X97Y740D01*
X96Y745D01*
Y746D01*
X96Y748D01*
Y749D01*
Y749D01*
Y754D01*
X97Y760D01*
X97D01*
X104Y754D01*
X109Y749D01*
X114Y745D01*
X117Y741D01*
X120Y739D01*
X121Y738D01*
X122Y737D01*
X122Y737D01*
X152Y765D01*
X148Y769D01*
X144Y773D01*
X141Y776D01*
X138Y779D01*
X136Y782D01*
X134Y784D01*
X131Y786D01*
X129Y788D01*
X128Y789D01*
X128Y790D01*
X128Y791D01*
X129Y792D01*
X130Y792D01*
X141D01*
X144Y792D01*
D02*
G37*
G36*
X437D02*
X437Y791D01*
X437Y791D01*
Y790D01*
X414Y765D01*
X419Y760D01*
X423Y756D01*
X427Y752D01*
X430Y749D01*
X433Y746D01*
X435Y743D01*
X437Y742D01*
X439Y740D01*
X441Y738D01*
X443Y737D01*
X443Y737D01*
X448Y741D01*
X451Y744D01*
X454Y747D01*
X457Y750D01*
X460Y753D01*
X462Y755D01*
X464Y757D01*
X466Y759D01*
X467Y761D01*
X468Y761D01*
X468Y761D01*
X469Y760D01*
X470Y757D01*
X470Y755D01*
Y754D01*
Y753D01*
Y750D01*
X470Y746D01*
Y745D01*
X469Y743D01*
Y743D01*
Y742D01*
X467Y737D01*
X464Y731D01*
X461Y727D01*
X458Y723D01*
X455Y720D01*
X451Y718D01*
X448Y716D01*
X445Y714D01*
X439Y711D01*
X434Y710D01*
X433D01*
X431Y710D01*
X430D01*
X420Y710D01*
X415Y706D01*
X411Y702D01*
X407Y698D01*
X404Y695D01*
X401Y692D01*
X399Y690D01*
X397Y688D01*
X396Y686D01*
X394Y684D01*
X392Y683D01*
X392Y683D01*
X387Y690D01*
X382Y696D01*
X377Y702D01*
X373Y706D01*
X369Y711D01*
X366Y714D01*
X365Y716D01*
X364Y716D01*
X368Y721D01*
X372Y725D01*
X375Y728D01*
X378Y731D01*
X380Y733D01*
X382Y735D01*
X385Y738D01*
X387Y740D01*
X388Y741D01*
X389Y741D01*
X388Y745D01*
X387Y747D01*
Y749D01*
Y750D01*
X388Y753D01*
Y755D01*
Y756D01*
X388Y757D01*
Y759D01*
Y759D01*
X390Y765D01*
X393Y770D01*
X396Y774D01*
X399Y778D01*
X402Y781D01*
X406Y784D01*
X409Y786D01*
X412Y788D01*
X418Y790D01*
X423Y792D01*
X425D01*
X426Y792D01*
X436D01*
X437Y792D01*
D02*
G37*
G36*
X175Y504D02*
X179Y501D01*
X183Y497D01*
X187Y495D01*
X190Y492D01*
X193Y490D01*
X195Y488D01*
X197Y486D01*
X200Y484D01*
X201Y482D01*
X202Y481D01*
X202Y481D01*
X198Y477D01*
X195Y473D01*
X191Y469D01*
X188Y467D01*
X186Y464D01*
X184Y462D01*
X181Y459D01*
X179Y457D01*
X177Y456D01*
X177Y456D01*
X178Y452D01*
Y445D01*
Y442D01*
X177Y440D01*
X177Y438D01*
Y437D01*
Y437D01*
X175Y431D01*
X172Y426D01*
X169Y423D01*
X166Y419D01*
X163Y416D01*
X160Y413D01*
X157Y411D01*
X154Y410D01*
X148Y407D01*
X144Y406D01*
X142D01*
X140Y406D01*
X130D01*
X128Y407D01*
X132Y412D01*
X135Y415D01*
X138Y419D01*
X141Y421D01*
X144Y424D01*
X146Y426D01*
X148Y428D01*
X150Y430D01*
X152Y431D01*
X152Y432D01*
X122Y462D01*
X97Y438D01*
X97D01*
X96Y446D01*
Y448D01*
X96Y451D01*
X97Y454D01*
X97Y456D01*
Y458D01*
X97Y458D01*
Y459D01*
X100Y464D01*
X103Y468D01*
X105Y472D01*
X109Y475D01*
X112Y478D01*
X115Y481D01*
X118Y483D01*
X121Y484D01*
X127Y486D01*
X132Y487D01*
X134Y488D01*
X136D01*
X140Y487D01*
X144D01*
X145Y487D01*
X147D01*
X150Y491D01*
X154Y494D01*
X156Y497D01*
X158Y499D01*
X162Y503D01*
X165Y505D01*
X166Y507D01*
X167Y508D01*
X168Y508D01*
X169D01*
X175Y504D01*
D02*
G37*
G36*
X1135Y446D02*
X1136Y445D01*
X1136Y443D01*
X1137Y440D01*
X1138Y437D01*
X1138Y433D01*
X1140Y426D01*
X1141Y418D01*
X1142Y414D01*
X1143Y411D01*
X1143Y408D01*
X1143Y406D01*
X1144Y405D01*
Y405D01*
X1145Y403D01*
X1148Y403D01*
X1152Y400D01*
X1157Y398D01*
X1162Y396D01*
X1167Y394D01*
X1169Y394D01*
X1171Y393D01*
X1172Y393D01*
X1173Y392D01*
X1174Y392D01*
X1174D01*
X1209Y416D01*
X1210Y415D01*
X1211Y414D01*
X1212Y413D01*
X1214Y411D01*
X1217Y409D01*
X1219Y406D01*
X1225Y401D01*
X1230Y396D01*
X1232Y393D01*
X1235Y391D01*
X1237Y389D01*
X1238Y387D01*
X1239Y386D01*
X1239Y386D01*
Y384D01*
X1217Y351D01*
Y350D01*
X1217Y349D01*
X1217Y348D01*
X1217Y347D01*
X1219Y345D01*
X1219Y342D01*
X1220Y340D01*
X1222Y335D01*
X1225Y329D01*
X1226Y327D01*
X1227Y325D01*
X1227Y323D01*
X1228Y322D01*
X1229Y321D01*
X1229Y321D01*
X1229Y320D01*
X1230Y320D01*
X1232Y319D01*
X1234Y319D01*
X1237Y318D01*
X1240Y318D01*
X1246Y317D01*
X1253Y315D01*
X1256Y315D01*
X1258Y314D01*
X1261Y314D01*
X1263Y313D01*
X1263Y313D01*
X1264D01*
X1266Y313D01*
X1268Y312D01*
X1269Y312D01*
X1270Y311D01*
X1270Y310D01*
X1271Y309D01*
Y308D01*
Y308D01*
Y272D01*
X1270Y269D01*
X1270Y269D01*
X1268Y269D01*
X1266Y268D01*
X1263Y268D01*
X1260Y267D01*
X1257Y266D01*
X1250Y265D01*
X1243Y264D01*
X1240Y263D01*
X1237Y263D01*
X1235Y262D01*
X1233Y262D01*
X1232Y262D01*
X1231D01*
X1231Y262D01*
X1230Y260D01*
X1229Y259D01*
X1228Y257D01*
X1227Y254D01*
X1226Y252D01*
X1224Y246D01*
X1221Y240D01*
X1220Y237D01*
X1219Y235D01*
X1219Y233D01*
X1218Y231D01*
X1217Y230D01*
Y229D01*
Y228D01*
X1221Y222D01*
X1225Y218D01*
X1227Y213D01*
X1230Y210D01*
X1232Y207D01*
X1234Y204D01*
X1235Y202D01*
X1237Y200D01*
X1237Y199D01*
X1238Y198D01*
X1238Y197D01*
X1239Y196D01*
X1239Y196D01*
Y195D01*
Y195D01*
X1235Y191D01*
X1232Y187D01*
X1229Y184D01*
X1225Y181D01*
X1223Y178D01*
X1220Y176D01*
X1219Y174D01*
X1217Y172D01*
X1215Y170D01*
X1214Y169D01*
X1212Y167D01*
X1211Y166D01*
X1210Y166D01*
X1210D01*
X1209Y166D01*
X1208Y167D01*
X1206Y168D01*
X1204Y169D01*
X1201Y171D01*
X1199Y172D01*
X1192Y176D01*
X1186Y181D01*
X1184Y182D01*
X1181Y184D01*
X1179Y185D01*
X1178Y186D01*
X1177Y187D01*
X1176Y187D01*
X1174Y186D01*
X1172Y185D01*
X1167Y183D01*
X1165Y182D01*
X1163Y181D01*
X1162Y180D01*
X1161Y179D01*
X1161D01*
X1160Y180D01*
X1160Y181D01*
X1159Y182D01*
X1158Y183D01*
X1158Y184D01*
X1157Y186D01*
X1155Y191D01*
X1153Y196D01*
X1150Y201D01*
X1148Y208D01*
X1145Y214D01*
X1143Y221D01*
X1140Y227D01*
X1138Y232D01*
X1136Y237D01*
X1134Y242D01*
X1133Y243D01*
X1133Y245D01*
X1132Y246D01*
X1132Y247D01*
X1132Y248D01*
Y248D01*
Y249D01*
X1136Y252D01*
X1140Y255D01*
X1144Y259D01*
X1147Y262D01*
X1150Y266D01*
X1151Y269D01*
X1153Y272D01*
X1155Y275D01*
X1156Y278D01*
X1156Y281D01*
X1157Y283D01*
X1158Y285D01*
X1158Y287D01*
X1158Y289D01*
Y289D01*
Y289D01*
X1158Y294D01*
X1157Y297D01*
X1157Y299D01*
X1156Y301D01*
X1156Y303D01*
X1156Y303D01*
Y304D01*
X1153Y309D01*
X1150Y314D01*
X1147Y318D01*
X1144Y321D01*
X1140Y324D01*
X1137Y326D01*
X1134Y329D01*
X1130Y330D01*
X1127Y331D01*
X1124Y333D01*
X1122Y333D01*
X1119Y333D01*
X1117Y334D01*
X1116Y334D01*
X1114D01*
X1113Y334D01*
X1111Y333D01*
X1109D01*
X1107Y333D01*
X1106Y333D01*
X1105Y333D01*
X1104D01*
X1099Y330D01*
X1093Y327D01*
X1089Y324D01*
X1085Y321D01*
X1082Y318D01*
X1079Y314D01*
X1077Y310D01*
X1075Y307D01*
X1074Y304D01*
X1073Y301D01*
X1072Y298D01*
X1071Y295D01*
X1071Y293D01*
X1071Y292D01*
Y290D01*
Y290D01*
Y289D01*
X1071Y285D01*
X1072Y281D01*
X1074Y277D01*
X1075Y273D01*
X1077Y269D01*
X1079Y266D01*
X1082Y263D01*
X1084Y260D01*
X1087Y257D01*
X1089Y255D01*
X1091Y254D01*
X1093Y252D01*
X1095Y251D01*
X1096Y250D01*
X1097Y249D01*
X1097Y249D01*
Y249D01*
X1097Y248D01*
X1097Y247D01*
X1096Y245D01*
X1095Y243D01*
X1094Y242D01*
X1093Y237D01*
X1091Y231D01*
X1088Y226D01*
X1086Y220D01*
X1083Y213D01*
X1080Y207D01*
X1078Y201D01*
X1075Y195D01*
X1073Y190D01*
X1071Y186D01*
X1071Y184D01*
X1070Y182D01*
X1069Y181D01*
X1069Y180D01*
X1069Y180D01*
Y179D01*
X1068D01*
X1068Y180D01*
X1066Y181D01*
X1063Y182D01*
X1060Y184D01*
X1058Y185D01*
X1055Y186D01*
X1054Y186D01*
X1054Y187D01*
X1053Y187D01*
X1053D01*
X1053Y187D01*
X1051Y186D01*
X1049Y185D01*
X1047Y184D01*
X1045Y182D01*
X1042Y181D01*
X1036Y176D01*
X1030Y172D01*
X1028Y171D01*
X1025Y169D01*
X1023Y168D01*
X1021Y167D01*
X1020Y166D01*
X1020Y166D01*
X1019D01*
X1013Y171D01*
X1009Y175D01*
X1005Y179D01*
X1002Y183D01*
X999Y185D01*
X997Y188D01*
X994Y190D01*
X993Y191D01*
X992Y193D01*
X991Y194D01*
X990Y194D01*
X990Y195D01*
X989Y196D01*
Y196D01*
X993Y202D01*
X997Y206D01*
X999Y211D01*
X1002Y214D01*
X1004Y218D01*
X1006Y221D01*
X1007Y223D01*
X1008Y225D01*
X1010Y226D01*
X1010Y227D01*
X1010Y228D01*
X1011Y229D01*
X1011Y229D01*
Y229D01*
X1011Y230D01*
X1011Y231D01*
X1010Y233D01*
X1009Y235D01*
X1008Y237D01*
X1008Y240D01*
X1005Y245D01*
X1003Y251D01*
X1002Y254D01*
X1001Y256D01*
X1000Y258D01*
X1000Y259D01*
X999Y260D01*
X999Y261D01*
X998Y261D01*
X997Y261D01*
X996Y262D01*
X994Y262D01*
X990Y263D01*
X987Y264D01*
X983Y264D01*
X981Y265D01*
X979Y265D01*
X978Y266D01*
X977D01*
X976Y266D01*
X976D01*
X973Y266D01*
X970Y266D01*
X968Y267D01*
X965Y268D01*
X964Y268D01*
X962Y268D01*
X961Y269D01*
X960Y269D01*
X959Y269D01*
X958Y270D01*
X958Y271D01*
Y309D01*
Y310D01*
X958Y310D01*
X959Y311D01*
X959Y311D01*
X959Y312D01*
X961Y312D01*
X962Y312D01*
X965Y313D01*
X968Y314D01*
X971Y315D01*
X979Y316D01*
X986Y317D01*
X989Y318D01*
X992Y318D01*
X994Y319D01*
X997Y319D01*
X998Y319D01*
X998D01*
X999Y319D01*
X999Y320D01*
X1000Y322D01*
X1002Y324D01*
X1003Y326D01*
X1004Y329D01*
X1006Y335D01*
X1008Y340D01*
X1010Y343D01*
X1010Y345D01*
X1011Y347D01*
X1012Y349D01*
X1012Y350D01*
X1013Y350D01*
Y351D01*
X1008Y356D01*
X1005Y362D01*
X1002Y366D01*
X999Y370D01*
X997Y373D01*
X995Y376D01*
X994Y379D01*
X993Y380D01*
X992Y382D01*
X991Y383D01*
X990Y384D01*
X990Y385D01*
X990Y385D01*
Y386D01*
Y386D01*
X993Y390D01*
X997Y394D01*
X1000Y397D01*
X1003Y400D01*
X1006Y403D01*
X1008Y405D01*
X1010Y407D01*
X1012Y409D01*
X1014Y410D01*
X1015Y412D01*
X1017Y414D01*
X1018Y415D01*
X1019Y415D01*
X1019D01*
X1020Y415D01*
X1021Y414D01*
X1023Y413D01*
X1026Y412D01*
X1028Y410D01*
X1031Y408D01*
X1038Y403D01*
X1044Y399D01*
X1047Y397D01*
X1049Y396D01*
X1051Y394D01*
X1053Y393D01*
X1054Y392D01*
X1054Y392D01*
X1055Y392D01*
X1056Y393D01*
X1058Y393D01*
X1060Y394D01*
X1062Y395D01*
X1065Y396D01*
X1070Y398D01*
X1076Y400D01*
X1078Y401D01*
X1080Y402D01*
X1082Y403D01*
X1083Y403D01*
X1084Y403D01*
X1084D01*
X1084Y405D01*
X1085Y406D01*
X1086Y408D01*
X1086Y410D01*
X1087Y412D01*
X1087Y415D01*
X1088Y421D01*
X1089Y426D01*
X1090Y429D01*
X1090Y431D01*
X1090Y433D01*
X1091Y434D01*
X1091Y435D01*
Y435D01*
Y437D01*
X1091Y439D01*
X1092Y442D01*
X1092Y444D01*
X1093Y445D01*
X1094Y446D01*
X1095Y447D01*
X1095Y447D01*
X1135D01*
X1135Y446D01*
D02*
G37*
%LPC*%
G36*
X1257Y125D02*
X1257D01*
X1254Y124D01*
X1252Y123D01*
X1251Y122D01*
X1250Y120D01*
X1249Y118D01*
X1249Y116D01*
Y116D01*
Y115D01*
Y109D01*
X1249Y106D01*
X1250Y104D01*
X1251Y102D01*
X1253Y101D01*
X1254Y100D01*
X1255Y100D01*
X1256Y99D01*
X1257D01*
X1258Y100D01*
X1260Y100D01*
X1262Y101D01*
X1263Y103D01*
X1264Y105D01*
X1265Y108D01*
X1265Y109D01*
X1265Y111D01*
Y111D01*
Y111D01*
Y114D01*
X1265Y116D01*
X1264Y118D01*
X1264Y119D01*
X1263Y122D01*
X1261Y123D01*
X1260Y124D01*
X1258Y125D01*
X1257Y125D01*
D02*
G37*
G36*
X979Y59D02*
X975D01*
X973Y59D01*
X971Y58D01*
X970Y56D01*
X969Y55D01*
X968Y53D01*
X968Y52D01*
X967Y51D01*
Y50D01*
X985D01*
Y51D01*
X985Y53D01*
X984Y55D01*
X983Y56D01*
X982Y58D01*
X980Y58D01*
X979Y59D01*
X979Y59D01*
D02*
G37*
G36*
X1298Y125D02*
X1298D01*
X1295Y124D01*
X1293Y123D01*
X1292Y122D01*
X1291Y120D01*
X1290Y119D01*
X1289Y117D01*
X1289Y116D01*
Y116D01*
Y109D01*
X1289Y106D01*
X1291Y104D01*
X1292Y102D01*
X1293Y101D01*
X1295Y100D01*
X1296Y100D01*
X1298Y99D01*
X1298D01*
X1299Y100D01*
X1301Y100D01*
X1303Y101D01*
X1304Y103D01*
X1306Y106D01*
X1306Y108D01*
X1306Y110D01*
X1307Y112D01*
Y112D01*
Y112D01*
Y114D01*
X1306Y116D01*
X1306Y118D01*
X1305Y119D01*
X1304Y122D01*
X1302Y123D01*
X1301Y124D01*
X1299Y125D01*
X1298Y125D01*
D02*
G37*
G36*
X1051Y43D02*
X1040D01*
Y38D01*
X1040Y36D01*
X1041Y35D01*
X1042Y34D01*
X1043Y34D01*
X1044Y33D01*
X1045Y33D01*
X1051D01*
X1053Y33D01*
X1054Y34D01*
X1055Y34D01*
X1056Y35D01*
X1056Y36D01*
X1057Y37D01*
Y37D01*
Y38D01*
Y38D01*
X1056Y40D01*
X1056Y41D01*
X1055Y41D01*
X1054Y42D01*
X1053Y43D01*
X1051Y43D01*
D02*
G37*
G36*
X1219D02*
X1209D01*
Y38D01*
X1209Y36D01*
X1210Y35D01*
X1211Y34D01*
X1212Y33D01*
X1213Y33D01*
X1214Y33D01*
X1220D01*
X1222Y33D01*
X1223Y34D01*
X1224Y34D01*
X1225Y35D01*
X1226Y36D01*
X1226Y37D01*
Y37D01*
Y38D01*
Y38D01*
X1226Y40D01*
X1225Y41D01*
X1224Y41D01*
X1222Y42D01*
X1220Y43D01*
X1219Y43D01*
D02*
G37*
G36*
X1146Y59D02*
X1145D01*
X1143Y59D01*
X1141Y58D01*
X1140Y56D01*
X1139Y54D01*
X1138Y52D01*
X1138Y50D01*
Y49D01*
Y49D01*
Y49D01*
Y45D01*
Y43D01*
X1138Y41D01*
X1139Y38D01*
X1140Y36D01*
X1141Y35D01*
X1143Y34D01*
X1144Y34D01*
X1145Y33D01*
X1147D01*
X1148Y34D01*
X1150Y34D01*
X1151Y35D01*
X1153Y37D01*
X1153Y39D01*
X1154Y41D01*
X1154Y43D01*
Y44D01*
Y45D01*
Y47D01*
Y49D01*
X1154Y52D01*
X1153Y54D01*
X1151Y56D01*
X1150Y58D01*
X1148Y59D01*
X1147Y59D01*
X1146Y59D01*
D02*
G37*
G36*
X284Y715D02*
X281D01*
X275Y714D01*
X268Y714D01*
X261Y712D01*
X255Y711D01*
X250Y710D01*
X245Y708D01*
X244Y708D01*
X243Y708D01*
X242Y707D01*
X242D01*
X230Y700D01*
X220Y692D01*
X212Y684D01*
X204Y676D01*
X198Y667D01*
X193Y658D01*
X189Y649D01*
X185Y641D01*
X183Y633D01*
X181Y625D01*
X179Y619D01*
X178Y613D01*
X177Y608D01*
X177Y604D01*
Y602D01*
Y602D01*
Y601D01*
Y600D01*
X177Y591D01*
X178Y581D01*
X179Y572D01*
X181Y564D01*
X182Y557D01*
X183Y554D01*
X183Y552D01*
X184Y550D01*
X184Y548D01*
X185Y547D01*
Y547D01*
X185Y546D01*
X186Y545D01*
X187Y544D01*
X189Y542D01*
X193Y538D01*
X197Y535D01*
X202Y531D01*
X206Y528D01*
X208Y526D01*
X209Y526D01*
X210Y525D01*
X210Y525D01*
X224Y521D01*
X237Y518D01*
X249Y516D01*
X254Y515D01*
X259Y514D01*
X264Y514D01*
X269Y513D01*
X272Y513D01*
X275D01*
X278Y512D01*
X281D01*
X291Y513D01*
X300Y514D01*
X309Y514D01*
X317Y516D01*
X324Y517D01*
X327Y517D01*
X329Y518D01*
X331Y518D01*
X333D01*
X334Y519D01*
X334D01*
X337Y519D01*
X340Y520D01*
X347Y522D01*
X353Y526D01*
X360Y530D01*
X365Y533D01*
X370Y537D01*
X371Y538D01*
X372Y539D01*
X373Y540D01*
X374Y540D01*
X376Y541D01*
X377Y543D01*
X379Y546D01*
X380Y550D01*
X382Y555D01*
X383Y559D01*
X385Y570D01*
X386Y581D01*
X387Y586D01*
X387Y590D01*
X388Y594D01*
Y596D01*
X388Y598D01*
Y599D01*
X388Y606D01*
X387Y614D01*
X386Y620D01*
X384Y626D01*
X383Y631D01*
X382Y635D01*
X382Y636D01*
X382Y637D01*
X381Y638D01*
Y638D01*
X378Y645D01*
X374Y652D01*
X371Y658D01*
X367Y663D01*
X359Y674D01*
X351Y682D01*
X343Y690D01*
X335Y696D01*
X327Y701D01*
X319Y705D01*
X311Y708D01*
X304Y711D01*
X298Y712D01*
X292Y714D01*
X288Y714D01*
X284Y715D01*
D02*
G37*
G36*
X284Y491D02*
X281D01*
Y471D01*
X284D01*
Y491D01*
D02*
G37*
G36*
X269D02*
X267D01*
X266Y490D01*
X265Y490D01*
Y489D01*
Y489D01*
Y473D01*
X266Y472D01*
X266Y471D01*
X267Y471D01*
X269D01*
X269Y475D01*
Y486D01*
X269Y491D01*
D02*
G37*
G36*
X1217Y125D02*
X1217D01*
X1214Y125D01*
X1212Y124D01*
X1211Y123D01*
X1210Y122D01*
X1209Y120D01*
X1209Y119D01*
X1209Y117D01*
Y117D01*
Y116D01*
X1226D01*
X1225Y119D01*
X1224Y122D01*
X1222Y123D01*
X1221Y124D01*
X1219Y125D01*
X1218Y125D01*
X1217Y125D01*
D02*
G37*
G36*
X1079Y125D02*
X1077D01*
X1076Y124D01*
X1074Y123D01*
X1072Y121D01*
X1071Y119D01*
X1071Y117D01*
X1070Y115D01*
X1070Y114D01*
Y114D01*
Y113D01*
Y111D01*
Y109D01*
X1070Y107D01*
X1071Y104D01*
X1072Y102D01*
X1074Y101D01*
X1076Y100D01*
X1077Y100D01*
X1078Y99D01*
X1079D01*
X1081Y100D01*
X1083Y101D01*
X1085Y102D01*
X1086Y104D01*
X1087Y105D01*
X1087Y107D01*
X1087Y108D01*
Y108D01*
Y116D01*
X1087Y119D01*
X1086Y121D01*
X1084Y123D01*
X1082Y124D01*
X1081Y124D01*
X1080Y125D01*
X1079Y125D01*
D02*
G37*
G36*
X932Y125D02*
X932D01*
X928Y125D01*
X926Y124D01*
X924Y123D01*
X924Y121D01*
X923Y119D01*
X923Y118D01*
X922Y117D01*
Y117D01*
Y116D01*
X940D01*
X939Y119D01*
X938Y121D01*
X937Y123D01*
X936Y124D01*
X934Y125D01*
X933Y125D01*
X932Y125D01*
D02*
G37*
G36*
X300Y491D02*
X297D01*
Y473D01*
X298Y472D01*
X298Y471D01*
X298Y471D01*
X299D01*
X300Y472D01*
X301Y473D01*
X302Y473D01*
Y486D01*
X300Y491D01*
D02*
G37*
%LPD*%
G36*
X291Y692D02*
X297Y691D01*
X303Y690D01*
X308Y688D01*
X312Y686D01*
X316Y685D01*
X318Y684D01*
X318Y684D01*
X325Y678D01*
X332Y673D01*
X337Y667D01*
X342Y661D01*
X346Y654D01*
X349Y648D01*
X352Y642D01*
X354Y636D01*
X356Y631D01*
X357Y626D01*
X358Y621D01*
X359Y617D01*
X359Y614D01*
X359Y612D01*
Y610D01*
Y610D01*
Y607D01*
X359Y600D01*
X358Y593D01*
X356Y586D01*
X354Y579D01*
X352Y573D01*
X349Y567D01*
X346Y562D01*
X343Y558D01*
X340Y553D01*
X337Y550D01*
X334Y547D01*
X332Y544D01*
X330Y542D01*
X328Y540D01*
X327Y540D01*
X327Y539D01*
X328Y533D01*
Y531D01*
X328Y529D01*
X327Y527D01*
Y526D01*
X327Y526D01*
X327Y525D01*
X325Y524D01*
X324Y523D01*
X320Y522D01*
X316Y521D01*
X312Y520D01*
X308Y520D01*
X307D01*
X306Y520D01*
X305D01*
X303Y521D01*
X301Y522D01*
X300Y524D01*
X300Y526D01*
X299Y528D01*
X299Y529D01*
Y530D01*
Y531D01*
Y532D01*
X297D01*
Y530D01*
X296Y526D01*
X295Y523D01*
X294Y521D01*
X292Y520D01*
X290Y519D01*
X289Y518D01*
X288Y518D01*
X278D01*
X275Y518D01*
X273Y520D01*
X271Y522D01*
X270Y525D01*
X269Y527D01*
X268Y530D01*
X268Y531D01*
Y532D01*
X269Y532D01*
Y532D01*
X266D01*
X267Y532D01*
X267D01*
X267Y530D01*
X266Y527D01*
X264Y524D01*
X263Y522D01*
X263Y521D01*
X262Y520D01*
X262Y520D01*
X259Y520D01*
X258Y520D01*
X257Y521D01*
X253D01*
X250Y521D01*
X247Y522D01*
X245Y522D01*
X241Y524D01*
X239Y526D01*
X238Y527D01*
X237Y528D01*
X237Y530D01*
Y530D01*
X237Y533D01*
X238Y536D01*
X239Y538D01*
X239Y538D01*
Y538D01*
X234Y544D01*
X228Y550D01*
X224Y555D01*
X220Y561D01*
X217Y566D01*
X214Y572D01*
X212Y577D01*
X210Y582D01*
X209Y587D01*
X208Y591D01*
X207Y595D01*
X207Y598D01*
Y601D01*
X206Y603D01*
Y604D01*
Y605D01*
Y616D01*
X207Y619D01*
X207Y623D01*
X208Y627D01*
X209Y631D01*
X210Y635D01*
X211Y637D01*
X211Y639D01*
X212Y640D01*
X216Y649D01*
X221Y657D01*
X227Y665D01*
X232Y671D01*
X238Y676D01*
X244Y680D01*
X250Y683D01*
X255Y686D01*
X261Y688D01*
X265Y690D01*
X270Y691D01*
X274Y692D01*
X277Y692D01*
X279Y693D01*
X284D01*
X291Y692D01*
D02*
G37*
%LPC*%
G36*
X284Y586D02*
X282Y586D01*
X282Y585D01*
X280Y583D01*
X279Y580D01*
X277Y576D01*
X277Y573D01*
X276Y569D01*
X275Y567D01*
Y567D01*
Y566D01*
X276Y560D01*
X278D01*
X279Y563D01*
X279Y565D01*
X280Y567D01*
X281Y568D01*
X281Y569D01*
X282Y569D01*
X283D01*
X284Y569D01*
X285Y568D01*
X286Y567D01*
X286Y565D01*
X287Y563D01*
X288Y562D01*
X288Y561D01*
Y560D01*
X290D01*
Y562D01*
X290Y563D01*
X290Y564D01*
Y564D01*
X290Y570D01*
X288Y575D01*
X287Y578D01*
X286Y581D01*
X285Y583D01*
X284Y585D01*
X284Y586D01*
Y586D01*
D02*
G37*
G36*
X250Y630D02*
X249D01*
X246Y630D01*
X243Y629D01*
X241Y628D01*
X239Y626D01*
X235Y623D01*
X232Y619D01*
X230Y614D01*
X229Y611D01*
X228Y609D01*
Y608D01*
X228Y608D01*
Y607D01*
X228Y603D01*
X229Y600D01*
X230Y597D01*
X231Y594D01*
X233Y591D01*
X235Y588D01*
X238Y587D01*
X239Y586D01*
X241Y585D01*
X242D01*
X242Y589D01*
X243Y592D01*
X244Y594D01*
X244Y595D01*
Y595D01*
X249Y597D01*
X253Y599D01*
X256Y601D01*
X259Y602D01*
X262Y604D01*
X264Y606D01*
X267Y608D01*
X269Y611D01*
X270Y612D01*
X270Y614D01*
Y614D01*
Y615D01*
X267Y620D01*
X264Y624D01*
X261Y626D01*
X257Y628D01*
X254Y629D01*
X252Y630D01*
X250Y630D01*
D02*
G37*
G36*
X317D02*
X316D01*
X311Y629D01*
X307Y628D01*
X303Y626D01*
X300Y623D01*
X298Y620D01*
X297Y618D01*
X296Y616D01*
X296Y616D01*
X296Y612D01*
X297Y609D01*
X298Y607D01*
X299Y607D01*
Y606D01*
X322Y594D01*
X322Y591D01*
X323Y589D01*
X323Y588D01*
X324Y587D01*
X324Y586D01*
X325Y585D01*
X327D01*
X330Y588D01*
X333Y591D01*
X335Y594D01*
X336Y598D01*
X337Y602D01*
X337Y605D01*
Y607D01*
Y608D01*
Y611D01*
X336Y614D01*
X334Y618D01*
X331Y622D01*
X327Y626D01*
X324Y628D01*
X321Y629D01*
X319Y630D01*
X317Y630D01*
D02*
G37*
%LPD*%
M02*
