G04 Layer_Physical_Order=1*
G04 Layer_Color=255*
%FSLAX23Y23*%
%MOIN*%
G70*
G01*
G75*
G04:AMPARAMS|DCode=10|XSize=29mil|YSize=39mil|CornerRadius=6mil|HoleSize=0mil|Usage=FLASHONLY|Rotation=0.000|XOffset=0mil|YOffset=0mil|HoleType=Round|Shape=RoundedRectangle|*
%AMROUNDEDRECTD10*
21,1,0.029,0.028,0,0,0.0*
21,1,0.017,0.039,0,0,0.0*
1,1,0.012,0.009,-0.014*
1,1,0.012,-0.009,-0.014*
1,1,0.012,-0.009,0.014*
1,1,0.012,0.009,0.014*
%
%ADD10ROUNDEDRECTD10*%
%ADD11R,0.020X0.011*%
%ADD12R,0.035X0.063*%
%ADD13R,0.083X0.065*%
G04:AMPARAMS|DCode=14|XSize=52mil|YSize=60mil|CornerRadius=13mil|HoleSize=0mil|Usage=FLASHONLY|Rotation=180.000|XOffset=0mil|YOffset=0mil|HoleType=Round|Shape=RoundedRectangle|*
%AMROUNDEDRECTD14*
21,1,0.052,0.034,0,0,180.0*
21,1,0.026,0.060,0,0,180.0*
1,1,0.026,-0.013,0.017*
1,1,0.026,0.013,0.017*
1,1,0.026,0.013,-0.017*
1,1,0.026,-0.013,-0.017*
%
%ADD14ROUNDEDRECTD14*%
%ADD15R,0.067X0.043*%
%ADD16R,0.031X0.024*%
G04:AMPARAMS|DCode=17|XSize=22mil|YSize=24mil|CornerRadius=4mil|HoleSize=0mil|Usage=FLASHONLY|Rotation=180.000|XOffset=0mil|YOffset=0mil|HoleType=Round|Shape=RoundedRectangle|*
%AMROUNDEDRECTD17*
21,1,0.022,0.015,0,0,180.0*
21,1,0.013,0.024,0,0,180.0*
1,1,0.009,-0.007,0.008*
1,1,0.009,0.007,0.008*
1,1,0.009,0.007,-0.008*
1,1,0.009,-0.007,-0.008*
%
%ADD17ROUNDEDRECTD17*%
G04:AMPARAMS|DCode=18|XSize=22mil|YSize=24mil|CornerRadius=4mil|HoleSize=0mil|Usage=FLASHONLY|Rotation=90.000|XOffset=0mil|YOffset=0mil|HoleType=Round|Shape=RoundedRectangle|*
%AMROUNDEDRECTD18*
21,1,0.022,0.015,0,0,90.0*
21,1,0.013,0.024,0,0,90.0*
1,1,0.009,0.008,0.007*
1,1,0.009,0.008,-0.007*
1,1,0.009,-0.008,-0.007*
1,1,0.009,-0.008,0.007*
%
%ADD18ROUNDEDRECTD18*%
%ADD19R,0.083X0.055*%
%ADD20R,0.100X0.100*%
%ADD21O,0.010X0.030*%
%ADD22O,0.030X0.010*%
%ADD23R,0.110X0.030*%
%ADD24R,0.134X0.055*%
%ADD25O,0.057X0.024*%
%ADD26C,0.030*%
%ADD27C,0.010*%
%ADD28C,0.008*%
%ADD29C,0.015*%
%ADD30O,0.060X0.120*%
%ADD31R,0.059X0.059*%
%ADD32C,0.059*%
%ADD33C,0.197*%
%ADD34O,0.120X0.060*%
%ADD35C,0.025*%
%ADD36C,0.030*%
G36*
X905Y155D02*
X824D01*
Y158D01*
X795D01*
Y192D01*
X824D01*
Y195D01*
X825D01*
Y205D01*
X905D01*
Y155D01*
D02*
G37*
G36*
X675Y196D02*
Y195D01*
X680Y190D01*
X686Y186D01*
X686Y186D01*
X692Y182D01*
X693Y182D01*
X707Y172D01*
X712Y170D01*
X736Y170D01*
X741Y166D01*
Y164D01*
X736Y160D01*
X707Y160D01*
X686Y151D01*
X670Y135D01*
X670Y122D01*
X580D01*
X575Y126D01*
Y200D01*
X671Y200D01*
X675Y196D01*
D02*
G37*
G36*
X1644Y379D02*
X1646Y378D01*
X1650Y378D01*
X1655Y378D01*
X1657Y379D01*
X1660Y381D01*
X1664Y379D01*
X1665Y378D01*
X1670Y378D01*
X1672Y378D01*
X1676Y374D01*
X1676Y372D01*
X1677Y367D01*
X1678Y366D01*
X1679Y362D01*
X1678Y358D01*
X1677Y357D01*
X1676Y352D01*
X1677Y348D01*
X1678Y346D01*
X1679Y342D01*
X1678Y339D01*
X1677Y337D01*
X1676Y333D01*
X1677Y328D01*
X1678Y326D01*
X1679Y323D01*
X1678Y319D01*
X1677Y318D01*
X1676Y313D01*
X1677Y308D01*
X1678Y307D01*
X1679Y303D01*
X1678Y299D01*
X1677Y298D01*
X1676Y293D01*
X1677Y289D01*
X1678Y287D01*
X1679Y283D01*
X1678Y280D01*
X1677Y278D01*
X1676Y274D01*
X1676Y272D01*
X1672Y268D01*
X1670Y268D01*
X1665Y267D01*
X1664Y266D01*
X1660Y265D01*
X1657Y266D01*
X1655Y267D01*
X1650Y268D01*
X1646Y267D01*
X1644Y266D01*
X1641Y265D01*
X1637Y266D01*
X1635Y267D01*
X1635Y267D01*
Y378D01*
X1635Y378D01*
X1637Y379D01*
X1641Y381D01*
X1644Y379D01*
D02*
G37*
G36*
X3500Y853D02*
Y853D01*
X3505Y853D01*
X3530Y851D01*
X3559Y845D01*
X3587Y836D01*
X3614Y822D01*
X3639Y806D01*
X3661Y786D01*
X3681Y764D01*
X3697Y739D01*
X3711Y712D01*
X3720Y684D01*
X3726Y655D01*
X3728Y628D01*
Y247D01*
X3726Y220D01*
X3720Y191D01*
X3711Y163D01*
X3697Y136D01*
X3681Y111D01*
X3661Y89D01*
X3639Y69D01*
X3614Y53D01*
X3587Y39D01*
X3559Y30D01*
X3530Y24D01*
X3501Y22D01*
X3500Y22D01*
X3391D01*
X3389Y27D01*
X3421Y59D01*
X3426Y66D01*
X3427Y75D01*
Y241D01*
X3539Y353D01*
X3595D01*
X3604Y354D01*
X3611Y359D01*
X3656Y404D01*
X3661Y411D01*
X3662Y420D01*
Y610D01*
Y665D01*
X3661Y674D01*
X3656Y681D01*
X3611Y726D01*
X3604Y731D01*
X3595Y732D01*
X2039D01*
X2006Y766D01*
X1999Y771D01*
X1990Y772D01*
X1708D01*
X1680Y800D01*
X1673Y805D01*
X1664Y807D01*
X1656Y805D01*
X1649Y800D01*
X1644Y793D01*
X1642Y784D01*
X1644Y776D01*
X1649Y769D01*
X1683Y734D01*
X1690Y729D01*
X1699Y728D01*
X1981D01*
X1998Y710D01*
X1960Y672D01*
X1955Y671D01*
X1946Y667D01*
X1939Y661D01*
X1933Y654D01*
X1929Y645D01*
X1928Y635D01*
Y575D01*
X1929Y565D01*
X1933Y556D01*
X1939Y549D01*
X1943Y546D01*
Y424D01*
X1939Y421D01*
X1933Y414D01*
X1929Y405D01*
X1928Y395D01*
Y335D01*
X1929Y325D01*
X1933Y316D01*
X1939Y309D01*
X1946Y303D01*
X1955Y299D01*
X1965Y298D01*
X1975Y299D01*
X1984Y303D01*
X1991Y309D01*
X1997Y316D01*
X2001Y325D01*
X2002Y335D01*
Y395D01*
X2001Y405D01*
X1997Y414D01*
X1991Y421D01*
X1987Y424D01*
Y546D01*
X1991Y549D01*
X1997Y556D01*
X2001Y565D01*
X2002Y575D01*
Y635D01*
X2001Y645D01*
X2000Y648D01*
X2039Y688D01*
X2303D01*
Y680D01*
X2304Y671D01*
X2309Y664D01*
X2343Y631D01*
Y575D01*
X2344Y565D01*
X2348Y556D01*
X2354Y549D01*
X2358Y546D01*
Y424D01*
X2354Y421D01*
X2348Y414D01*
X2344Y405D01*
X2343Y395D01*
Y335D01*
X2344Y325D01*
X2348Y316D01*
X2354Y309D01*
X2361Y303D01*
X2370Y299D01*
X2380Y298D01*
X2390Y299D01*
X2399Y303D01*
X2406Y309D01*
X2412Y316D01*
X2416Y325D01*
X2417Y335D01*
Y395D01*
X2416Y405D01*
X2412Y414D01*
X2406Y421D01*
X2402Y424D01*
Y546D01*
X2406Y549D01*
X2412Y556D01*
X2416Y565D01*
X2417Y575D01*
Y635D01*
X2416Y645D01*
X2412Y654D01*
X2406Y661D01*
X2399Y667D01*
X2390Y671D01*
X2380Y672D01*
X2370Y671D01*
X2367Y670D01*
X2354Y683D01*
X2356Y688D01*
X2725D01*
Y653D01*
X2726Y644D01*
X2731Y637D01*
X2758Y611D01*
Y575D01*
X2759Y565D01*
X2763Y556D01*
X2769Y549D01*
X2773Y546D01*
Y424D01*
X2769Y421D01*
X2763Y414D01*
X2759Y405D01*
X2758Y395D01*
Y335D01*
X2759Y325D01*
X2763Y316D01*
X2769Y309D01*
X2776Y303D01*
X2785Y299D01*
X2795Y298D01*
X2805Y299D01*
X2814Y303D01*
X2821Y309D01*
X2827Y316D01*
X2831Y325D01*
X2832Y335D01*
Y395D01*
X2831Y405D01*
X2827Y414D01*
X2821Y421D01*
X2817Y424D01*
Y546D01*
X2821Y549D01*
X2827Y556D01*
X2831Y565D01*
X2832Y575D01*
Y635D01*
X2831Y645D01*
X2827Y654D01*
X2821Y661D01*
X2814Y667D01*
X2805Y671D01*
X2795Y672D01*
X2785Y671D01*
X2776Y667D01*
X2774Y666D01*
X2769Y668D01*
Y688D01*
X3128D01*
Y669D01*
X3129Y660D01*
X3134Y653D01*
X3173Y614D01*
Y575D01*
X3174Y565D01*
X3178Y556D01*
X3184Y549D01*
X3188Y546D01*
Y424D01*
X3184Y421D01*
X3178Y414D01*
X3174Y405D01*
X3173Y395D01*
Y335D01*
X3174Y325D01*
X3178Y316D01*
X3184Y309D01*
X3191Y303D01*
X3200Y299D01*
X3210Y298D01*
X3220Y299D01*
X3229Y303D01*
X3236Y309D01*
X3242Y316D01*
X3246Y325D01*
X3247Y335D01*
Y395D01*
X3246Y405D01*
X3242Y414D01*
X3236Y421D01*
X3232Y424D01*
Y546D01*
X3236Y549D01*
X3242Y556D01*
X3246Y565D01*
X3247Y575D01*
Y635D01*
X3246Y645D01*
X3242Y654D01*
X3236Y661D01*
X3229Y667D01*
X3220Y671D01*
X3210Y672D01*
X3200Y671D01*
X3191Y667D01*
X3187Y664D01*
X3172Y678D01*
Y688D01*
X3586D01*
X3618Y656D01*
Y632D01*
X3611D01*
X3603Y631D01*
X3595Y626D01*
X3562Y592D01*
X3510D01*
X3500Y591D01*
X3491Y587D01*
X3484Y581D01*
X3478Y574D01*
X3474Y565D01*
X3473Y555D01*
X3474Y545D01*
X3478Y536D01*
X3484Y529D01*
X3491Y523D01*
X3500Y519D01*
X3510Y518D01*
X3570D01*
X3580Y519D01*
X3589Y523D01*
X3596Y529D01*
X3602Y536D01*
X3606Y545D01*
X3607Y555D01*
X3606Y565D01*
X3604Y571D01*
X3613Y580D01*
X3618Y578D01*
Y429D01*
X3586Y397D01*
X3530D01*
X3521Y396D01*
X3514Y391D01*
X3389Y266D01*
X3384Y259D01*
X3383Y250D01*
Y84D01*
X3361Y62D01*
X1084D01*
X1051Y95D01*
X1053Y100D01*
X1102D01*
Y170D01*
X1040D01*
Y208D01*
X1065Y233D01*
X1245D01*
X1250Y234D01*
X1254Y236D01*
X1362Y345D01*
X1365Y349D01*
X1366Y354D01*
Y377D01*
X1367Y378D01*
X1372Y379D01*
X1372Y379D01*
X1372Y379D01*
X1417D01*
Y379D01*
X1419D01*
Y379D01*
X1465D01*
Y384D01*
X1470Y384D01*
X1470Y383D01*
X1472Y379D01*
X1476Y377D01*
X1480Y376D01*
Y330D01*
Y230D01*
X1490Y220D01*
X1492Y222D01*
X1600D01*
X1601Y217D01*
X1603Y214D01*
X1654Y163D01*
D01*
X1655Y162D01*
X1655Y162D01*
X1658Y160D01*
X1663Y159D01*
X3265D01*
X3265Y159D01*
X3269Y160D01*
X3273Y162D01*
X3443Y332D01*
X3445Y336D01*
X3446Y340D01*
X3446Y340D01*
Y425D01*
X3465Y444D01*
X3475D01*
X3478Y436D01*
X3484Y429D01*
X3491Y423D01*
X3500Y419D01*
X3510Y418D01*
X3570D01*
X3580Y419D01*
X3589Y423D01*
X3596Y429D01*
X3602Y436D01*
X3606Y445D01*
X3607Y455D01*
X3606Y465D01*
X3602Y474D01*
X3596Y481D01*
X3589Y487D01*
X3580Y491D01*
X3570Y492D01*
X3510D01*
X3500Y491D01*
X3491Y487D01*
X3484Y481D01*
X3478Y474D01*
X3475Y466D01*
X3460D01*
X3456Y465D01*
X3452Y463D01*
X3452Y463D01*
X3427Y438D01*
X3425Y434D01*
X3424Y430D01*
X3424Y430D01*
Y345D01*
X3406Y327D01*
X3401Y329D01*
Y450D01*
X3401Y450D01*
X3400Y454D01*
X3398Y458D01*
X3398Y458D01*
X3321Y535D01*
Y540D01*
X3329Y543D01*
X3336Y549D01*
X3342Y556D01*
X3346Y565D01*
X3347Y575D01*
Y635D01*
X3346Y645D01*
X3342Y654D01*
X3336Y661D01*
X3329Y667D01*
X3320Y671D01*
X3310Y672D01*
X3300Y671D01*
X3291Y667D01*
X3284Y661D01*
X3278Y654D01*
X3274Y645D01*
X3273Y635D01*
Y575D01*
X3274Y565D01*
X3278Y556D01*
X3284Y549D01*
X3291Y543D01*
X3299Y540D01*
Y530D01*
X3299Y530D01*
X3300Y526D01*
X3302Y522D01*
X3379Y445D01*
Y321D01*
X3254Y196D01*
X2926D01*
X2924Y201D01*
X2926Y204D01*
X3035D01*
X3035Y204D01*
X3039Y205D01*
X3043Y207D01*
X3118Y282D01*
X3118Y282D01*
X3120Y286D01*
X3121Y290D01*
Y300D01*
X3129Y303D01*
X3136Y309D01*
X3142Y316D01*
X3146Y325D01*
X3147Y335D01*
Y395D01*
X3146Y405D01*
X3142Y414D01*
X3136Y421D01*
X3129Y427D01*
X3120Y431D01*
X3110Y432D01*
X3100Y431D01*
X3091Y427D01*
X3084Y421D01*
X3078Y414D01*
X3074Y405D01*
X3073Y395D01*
Y335D01*
X3074Y325D01*
X3078Y316D01*
X3084Y309D01*
X3091Y303D01*
X3099Y300D01*
Y295D01*
X3030Y226D01*
X2934D01*
X2932Y231D01*
X2983Y282D01*
X2983Y282D01*
X2985Y286D01*
X2986Y290D01*
Y455D01*
X2986Y455D01*
X2985Y459D01*
X2983Y463D01*
X2983Y463D01*
X2909Y536D01*
X2910Y541D01*
X2914Y543D01*
X2921Y549D01*
X2927Y556D01*
X2931Y565D01*
X2932Y575D01*
Y635D01*
X2931Y645D01*
X2927Y654D01*
X2921Y661D01*
X2914Y667D01*
X2905Y671D01*
X2895Y672D01*
X2885Y671D01*
X2876Y667D01*
X2869Y661D01*
X2863Y654D01*
X2859Y645D01*
X2858Y635D01*
Y575D01*
X2859Y565D01*
X2863Y556D01*
X2869Y549D01*
X2876Y543D01*
X2884Y540D01*
Y535D01*
X2884Y535D01*
X2885Y531D01*
X2887Y527D01*
X2964Y450D01*
Y295D01*
X2895Y226D01*
X2654D01*
X2652Y231D01*
X2703Y282D01*
X2703Y282D01*
X2705Y286D01*
X2706Y290D01*
X2706Y290D01*
Y300D01*
X2714Y303D01*
X2721Y309D01*
X2727Y316D01*
X2731Y325D01*
X2732Y335D01*
Y395D01*
X2731Y405D01*
X2727Y414D01*
X2721Y421D01*
X2714Y427D01*
X2705Y431D01*
X2695Y432D01*
X2685Y431D01*
X2676Y427D01*
X2669Y421D01*
X2663Y414D01*
X2659Y405D01*
X2658Y395D01*
Y335D01*
X2659Y325D01*
X2663Y316D01*
X2669Y309D01*
X2676Y303D01*
X2684Y300D01*
Y295D01*
X2630Y241D01*
X2467D01*
X2465Y246D01*
X2563Y344D01*
X2563Y344D01*
X2565Y348D01*
X2566Y352D01*
X2566Y352D01*
Y450D01*
X2565Y454D01*
X2563Y458D01*
X2563Y458D01*
X2491Y530D01*
Y540D01*
X2499Y543D01*
X2506Y549D01*
X2512Y556D01*
X2516Y565D01*
X2517Y575D01*
Y635D01*
X2516Y645D01*
X2512Y654D01*
X2506Y661D01*
X2499Y667D01*
X2490Y671D01*
X2480Y672D01*
X2470Y671D01*
X2461Y667D01*
X2454Y661D01*
X2448Y654D01*
X2444Y645D01*
X2443Y635D01*
Y575D01*
X2444Y565D01*
X2448Y556D01*
X2454Y549D01*
X2461Y543D01*
X2469Y540D01*
Y525D01*
X2469Y525D01*
X2470Y521D01*
X2472Y517D01*
X2544Y445D01*
Y357D01*
X2443Y256D01*
X2106D01*
X2104Y261D01*
X2106Y264D01*
X2135D01*
X2135Y264D01*
X2139Y265D01*
X2143Y267D01*
X2230Y354D01*
X2243D01*
Y335D01*
X2244Y325D01*
X2248Y316D01*
X2254Y309D01*
X2261Y303D01*
X2270Y299D01*
X2280Y298D01*
X2290Y299D01*
X2299Y303D01*
X2306Y309D01*
X2312Y316D01*
X2316Y325D01*
X2317Y335D01*
Y395D01*
X2316Y405D01*
X2312Y414D01*
X2306Y421D01*
X2299Y427D01*
X2290Y431D01*
X2280Y432D01*
X2270Y431D01*
X2261Y427D01*
X2254Y421D01*
X2248Y414D01*
X2244Y405D01*
X2243Y395D01*
Y376D01*
X2225D01*
X2221Y375D01*
X2217Y373D01*
X2217Y373D01*
X2130Y286D01*
X2114D01*
X2112Y291D01*
X2148Y327D01*
X2148Y327D01*
X2150Y331D01*
X2151Y335D01*
X2151Y335D01*
Y455D01*
X2150Y459D01*
X2148Y463D01*
X2148Y463D01*
X2076Y535D01*
Y540D01*
X2084Y543D01*
X2091Y549D01*
X2097Y556D01*
X2101Y565D01*
X2102Y575D01*
Y635D01*
X2101Y645D01*
X2097Y654D01*
X2091Y661D01*
X2084Y667D01*
X2075Y671D01*
X2065Y672D01*
X2055Y671D01*
X2046Y667D01*
X2039Y661D01*
X2033Y654D01*
X2029Y645D01*
X2028Y635D01*
Y575D01*
X2029Y565D01*
X2033Y556D01*
X2039Y549D01*
X2046Y543D01*
X2054Y540D01*
Y530D01*
X2054Y530D01*
X2055Y526D01*
X2057Y522D01*
X2129Y450D01*
Y340D01*
X2075Y286D01*
X1810D01*
X1757Y339D01*
X1756Y341D01*
X1759Y345D01*
X1760Y345D01*
X1768Y347D01*
X1774Y351D01*
X1778Y357D01*
X1780Y365D01*
X1778Y373D01*
X1774Y379D01*
X1768Y383D01*
X1760Y385D01*
X1752Y383D01*
X1751Y383D01*
X1748Y386D01*
X1748Y387D01*
X1750Y395D01*
X1748Y403D01*
X1744Y409D01*
X1738Y413D01*
X1736Y414D01*
X1736Y419D01*
X1750D01*
X1812Y357D01*
X1812Y357D01*
X1816Y355D01*
X1820Y354D01*
X1820Y354D01*
X1828D01*
Y335D01*
X1829Y325D01*
X1833Y316D01*
X1839Y309D01*
X1846Y303D01*
X1855Y299D01*
X1865Y298D01*
X1875Y299D01*
X1884Y303D01*
X1891Y309D01*
X1897Y316D01*
X1901Y325D01*
X1902Y335D01*
Y395D01*
X1901Y405D01*
X1897Y414D01*
X1891Y421D01*
X1884Y427D01*
X1875Y431D01*
X1865Y432D01*
X1855Y431D01*
X1846Y427D01*
X1839Y421D01*
X1833Y414D01*
X1829Y405D01*
X1828Y395D01*
Y380D01*
X1823Y378D01*
X1763Y438D01*
X1759Y440D01*
X1755Y441D01*
X1755Y441D01*
X1675D01*
X1672Y446D01*
X1673Y447D01*
X1675Y455D01*
X1673Y463D01*
X1669Y469D01*
X1663Y473D01*
X1655Y475D01*
X1652Y479D01*
Y676D01*
X1651Y681D01*
X1648Y685D01*
X1635Y698D01*
Y853D01*
X3500D01*
X3500Y853D01*
D02*
G37*
G36*
X745Y22D02*
X580D01*
Y115D01*
X745D01*
Y22D01*
D02*
G37*
G36*
X820Y210D02*
X820Y210D01*
X818Y208D01*
X818Y205D01*
Y200D01*
X787D01*
Y148D01*
X824D01*
X824Y148D01*
X905D01*
Y22D01*
X755D01*
Y130D01*
X750D01*
Y190D01*
Y199D01*
X720D01*
Y220D01*
X820D01*
Y210D01*
D02*
G37*
G36*
X1191Y776D02*
X1195Y774D01*
X1200Y773D01*
X1260D01*
Y545D01*
X1251D01*
X1238Y558D01*
X1234Y560D01*
X1230Y561D01*
X1230Y561D01*
X965D01*
X858Y668D01*
X854Y670D01*
X850Y671D01*
X850Y671D01*
X849D01*
X848Y674D01*
X841Y678D01*
X834Y679D01*
X829D01*
Y691D01*
X834D01*
X841Y692D01*
X848Y696D01*
X852Y703D01*
X853Y710D01*
X852Y717D01*
X848Y724D01*
X841Y728D01*
X841Y728D01*
Y742D01*
X844Y744D01*
X846Y748D01*
X847Y752D01*
Y761D01*
X894Y808D01*
X1160D01*
X1191Y776D01*
D02*
G37*
G36*
X1255Y272D02*
X1240Y257D01*
X1060D01*
X1055Y256D01*
X1051Y254D01*
X1019Y221D01*
X1016Y217D01*
X1015Y213D01*
Y170D01*
X954D01*
Y165D01*
X948D01*
X946Y170D01*
X951Y176D01*
X952Y185D01*
X951Y194D01*
X946Y201D01*
X939Y206D01*
X930Y207D01*
X912D01*
X912Y208D01*
X910Y210D01*
X908Y212D01*
X905Y212D01*
X900D01*
Y215D01*
X875Y240D01*
X860Y255D01*
X672D01*
X671Y256D01*
X666Y257D01*
X648D01*
X643Y256D01*
X642Y255D01*
X623D01*
X621Y257D01*
X619Y261D01*
X623Y267D01*
X625Y275D01*
X623Y283D01*
X619Y289D01*
X613Y293D01*
X605Y295D01*
X597Y293D01*
X591Y289D01*
X587Y283D01*
X585Y275D01*
X587Y267D01*
X591Y261D01*
X590Y259D01*
X589Y256D01*
X588Y255D01*
X560D01*
Y22D01*
X250D01*
X249Y22D01*
X220Y24D01*
X191Y30D01*
X163Y39D01*
X136Y53D01*
X111Y69D01*
X89Y89D01*
X69Y111D01*
X53Y136D01*
X39Y163D01*
X30Y191D01*
X24Y220D01*
X22Y249D01*
X22Y250D01*
Y370D01*
X560D01*
Y445D01*
X565Y450D01*
X570Y445D01*
X627D01*
Y440D01*
X723D01*
Y445D01*
X985D01*
Y440D01*
X1082D01*
Y468D01*
X1255D01*
Y272D01*
D02*
G37*
G36*
X700Y535D02*
X550Y535D01*
Y384D01*
X546Y380D01*
X22Y380D01*
Y628D01*
X24Y655D01*
X30Y684D01*
X39Y712D01*
X53Y739D01*
X69Y764D01*
X89Y786D01*
X111Y806D01*
X136Y822D01*
X163Y836D01*
X191Y845D01*
X220Y851D01*
X245Y853D01*
X245Y853D01*
X250Y853D01*
X250D01*
X255Y853D01*
X255D01*
X255D01*
X700D01*
Y535D01*
D02*
G37*
%LPC*%
G36*
X510Y712D02*
X500Y711D01*
X492Y707D01*
X484Y701D01*
X478Y693D01*
X474Y685D01*
X473Y675D01*
X474Y665D01*
X478Y657D01*
X484Y649D01*
X492Y643D01*
X500Y639D01*
X510Y638D01*
X520Y639D01*
X528Y643D01*
X536Y649D01*
X542Y657D01*
X543Y659D01*
X549Y660D01*
X557Y652D01*
X557Y652D01*
X561Y650D01*
X565Y649D01*
X565Y649D01*
X571D01*
X572Y646D01*
X579Y642D01*
X586Y641D01*
X619D01*
X627Y642D01*
X633Y646D01*
X637Y653D01*
X639Y660D01*
X637Y667D01*
X633Y674D01*
X627Y678D01*
X619Y679D01*
X586D01*
X579Y678D01*
X572Y674D01*
X567Y674D01*
X558Y683D01*
X554Y685D01*
X550Y686D01*
X550Y686D01*
X545D01*
X542Y693D01*
X536Y701D01*
X528Y707D01*
X520Y711D01*
X510Y712D01*
D02*
G37*
G36*
X547Y812D02*
X473D01*
Y738D01*
X547D01*
Y764D01*
X583D01*
Y757D01*
X584Y753D01*
X586Y749D01*
X590Y747D01*
X592Y746D01*
Y729D01*
X586D01*
X579Y728D01*
X572Y724D01*
X568Y717D01*
X567Y710D01*
X568Y703D01*
X572Y696D01*
X579Y692D01*
X586Y691D01*
X619D01*
X627Y692D01*
X633Y696D01*
X637Y703D01*
X639Y710D01*
X637Y717D01*
X633Y724D01*
X627Y728D01*
X619Y729D01*
X614D01*
Y748D01*
X616Y749D01*
X619Y753D01*
X620Y757D01*
Y773D01*
X619Y777D01*
X616Y781D01*
X612Y783D01*
X608Y784D01*
X597D01*
X596Y785D01*
X591Y786D01*
X591Y786D01*
X547D01*
Y812D01*
D02*
G37*
G36*
Y232D02*
X473D01*
Y158D01*
X547D01*
Y232D01*
D02*
G37*
G36*
X619Y629D02*
X586D01*
X579Y628D01*
X572Y624D01*
X571Y621D01*
X545D01*
X545Y621D01*
X541Y620D01*
X537Y618D01*
X537Y618D01*
X527Y608D01*
X520Y611D01*
X510Y612D01*
X500Y611D01*
X492Y607D01*
X484Y601D01*
X478Y593D01*
X474Y585D01*
X473Y575D01*
X474Y565D01*
X478Y557D01*
X484Y549D01*
X492Y543D01*
X500Y539D01*
X510Y538D01*
X520Y539D01*
X528Y543D01*
X536Y549D01*
X542Y557D01*
X546Y565D01*
X547Y575D01*
X546Y585D01*
X543Y592D01*
X550Y599D01*
X571D01*
X572Y596D01*
X579Y592D01*
X586Y591D01*
X619D01*
X627Y592D01*
X633Y596D01*
X637Y603D01*
X639Y610D01*
X637Y617D01*
X633Y624D01*
X627Y628D01*
X619Y629D01*
D02*
G37*
%LPD*%
D10*
X603Y230D02*
D03*
X657D02*
D03*
X1542Y480D02*
D03*
X1488D02*
D03*
D11*
X807Y145D02*
D03*
Y165D02*
D03*
Y185D02*
D03*
Y205D02*
D03*
X733D02*
D03*
Y185D02*
D03*
Y165D02*
D03*
Y145D02*
D03*
D12*
X770Y175D02*
D03*
D13*
X625Y75D02*
D03*
Y155D02*
D03*
D14*
X717Y85D02*
D03*
X792D02*
D03*
D15*
X865Y78D02*
D03*
Y182D02*
D03*
D16*
X1442Y398D02*
D03*
X1395D02*
D03*
D17*
X1354Y395D02*
D03*
X1316D02*
D03*
X1539Y520D02*
D03*
X1501D02*
D03*
X829Y760D02*
D03*
X791D02*
D03*
X601Y765D02*
D03*
X639D02*
D03*
D18*
X1488Y394D02*
D03*
Y432D02*
D03*
D19*
X1033Y475D02*
D03*
Y298D02*
D03*
X675D02*
D03*
Y475D02*
D03*
D20*
X1621Y323D02*
D03*
D21*
X1572Y400D02*
D03*
X1591D02*
D03*
X1611D02*
D03*
X1631D02*
D03*
X1650D02*
D03*
X1670D02*
D03*
Y246D02*
D03*
X1650D02*
D03*
X1631D02*
D03*
X1611D02*
D03*
X1591D02*
D03*
X1572D02*
D03*
D22*
X1698Y372D02*
D03*
Y352D02*
D03*
Y333D02*
D03*
Y313D02*
D03*
Y293D02*
D03*
Y274D02*
D03*
X1544D02*
D03*
Y293D02*
D03*
Y313D02*
D03*
Y333D02*
D03*
Y352D02*
D03*
Y372D02*
D03*
D23*
X1520Y585D02*
D03*
X1360D02*
D03*
X1520Y635D02*
D03*
X1360D02*
D03*
X1520Y685D02*
D03*
X1360D02*
D03*
X1520Y735D02*
D03*
X1360D02*
D03*
X1520Y785D02*
D03*
X1360D02*
D03*
D24*
X1232Y135D02*
D03*
X1028D02*
D03*
D25*
X603Y710D02*
D03*
Y660D02*
D03*
Y610D02*
D03*
Y560D02*
D03*
X817Y710D02*
D03*
Y660D02*
D03*
Y610D02*
D03*
Y560D02*
D03*
D26*
X3640Y610D02*
Y665D01*
Y420D02*
Y610D01*
X3540Y555D02*
X3556D01*
X3611Y610D01*
X3640D01*
X3150Y710D02*
X3595D01*
X2745D02*
X3150D01*
X3210Y605D02*
Y609D01*
X3150Y669D02*
X3210Y609D01*
X3150Y669D02*
Y710D01*
X2325D02*
X2745D01*
X2747Y653D02*
X2795Y605D01*
X2747Y653D02*
Y708D01*
X2745Y710D02*
X2747Y708D01*
X2030Y710D02*
X2325D01*
Y680D02*
X2380Y625D01*
X2325Y680D02*
Y710D01*
X3595Y375D02*
X3640Y420D01*
X3530Y375D02*
X3595D01*
X3405Y250D02*
X3530Y375D01*
X3405Y75D02*
Y250D01*
X3370Y40D02*
X3405Y75D01*
X1965Y365D02*
Y605D01*
Y645D01*
X2380Y365D02*
Y605D01*
X3210Y365D02*
Y605D01*
X1990Y750D02*
X2030Y710D01*
X1360Y785D02*
X1419D01*
X2795Y365D02*
Y605D01*
X1699Y750D02*
X1990D01*
X1664Y784D02*
X1699Y750D01*
X3595Y710D02*
X3640Y665D01*
X930Y135D02*
X1028D01*
X930Y135D02*
X930Y135D01*
X1180D02*
Y185D01*
X1280Y135D02*
Y185D01*
X868D02*
X930D01*
X865Y182D02*
X868Y185D01*
X2380Y605D02*
Y625D01*
X1965Y645D02*
X2030Y710D01*
X1028Y87D02*
Y135D01*
Y87D02*
X1075Y40D01*
X3370D01*
D27*
X710Y145D02*
X733D01*
X700Y135D02*
X710Y145D01*
X715Y185D02*
X733D01*
X700Y200D02*
X715Y185D01*
X680Y220D02*
X700Y200D01*
X667Y220D02*
X680D01*
X657Y230D02*
X667Y220D01*
X1442Y398D02*
X1485D01*
X1508Y348D02*
Y374D01*
Y348D02*
X1523Y333D01*
X1544D01*
X1488Y394D02*
X1508Y374D01*
X1485Y398D02*
X1488Y394D01*
X1391D02*
X1395Y398D01*
X1611Y400D02*
Y423D01*
X1623Y435D01*
X1533Y425D02*
X1558Y400D01*
X1572D01*
X1448Y435D02*
X1485D01*
X1488Y432D01*
X605Y232D02*
Y275D01*
X603Y230D02*
X605Y232D01*
X1640Y470D02*
X1655Y455D01*
X1355Y396D02*
Y435D01*
X1354Y395D02*
X1355Y396D01*
X1450Y585D02*
X1520D01*
Y735D02*
X1557D01*
X1623Y669D01*
Y435D02*
Y669D01*
X1605Y711D02*
X1640Y676D01*
Y470D02*
Y676D01*
X1520Y555D02*
Y585D01*
Y555D02*
X1539Y536D01*
X1591Y400D02*
Y430D01*
X1539Y483D02*
Y520D01*
Y536D01*
Y483D02*
X1542Y480D01*
X1591Y430D01*
X1445Y480D02*
X1488D01*
X1475Y545D02*
X1476D01*
X1501Y520D01*
X1360Y685D02*
Y735D01*
X1275D02*
X1360D01*
X1275Y585D02*
X1360D01*
X1280Y395D02*
X1316D01*
X675Y475D02*
X1033D01*
X829Y721D02*
Y760D01*
X1345Y481D02*
X1450Y585D01*
X1033Y475D02*
X1039Y481D01*
X1345D01*
X675Y298D02*
X677Y300D01*
X750D01*
X965D02*
X1031D01*
X1033Y298D01*
X1180Y135D02*
X1232D01*
X1200Y785D02*
X1360D01*
X1165Y820D02*
X1200Y785D01*
X889Y820D02*
X1165D01*
X829Y760D02*
X889Y820D01*
X639Y765D02*
X670D01*
X760Y760D02*
X791D01*
X820Y530D02*
Y557D01*
X817Y560D02*
X820Y557D01*
X1245Y245D02*
X1354Y354D01*
Y394D01*
Y395D01*
Y394D02*
X1391D01*
X1611Y313D02*
X1621Y323D01*
X1507Y313D02*
X1544D01*
X1505Y315D02*
X1507Y313D01*
X1544D02*
X1611D01*
X1520Y785D02*
X1585D01*
X1605Y765D01*
Y711D02*
Y765D01*
X1028Y135D02*
Y213D01*
X1060Y245D01*
X1245D01*
D28*
X1698Y333D02*
X1747D01*
X1698Y313D02*
X1746D01*
X1698Y293D02*
X1744D01*
X1698Y274D02*
X1743D01*
X1670Y246D02*
X1749D01*
X1650Y225D02*
Y246D01*
X1631Y223D02*
Y246D01*
X1611Y222D02*
Y246D01*
X1698Y372D02*
X1707D01*
X1730Y395D01*
X1611Y222D02*
X1663Y170D01*
X1631Y223D02*
X1669Y185D01*
X1650Y225D02*
X1675Y200D01*
X1747Y333D02*
X1805Y275D01*
X2080D01*
X2140Y335D01*
X1799Y260D02*
X2086D01*
X1793Y245D02*
X2448D01*
X1746Y313D02*
X1799Y260D01*
X2086D02*
X2101Y275D01*
X1744Y293D02*
X1793Y245D01*
X2448D02*
X2555Y352D01*
X1743Y274D02*
X1786Y230D01*
X1749Y246D02*
X1780Y215D01*
X2900D01*
X2975Y290D01*
X1675Y200D02*
X2906D01*
X2921Y215D01*
X1698Y352D02*
X1747D01*
X1760Y365D01*
X3540Y455D02*
X3540Y455D01*
X1663Y170D02*
X3265D01*
X1669Y185D02*
X3259D01*
X3390Y316D01*
X510Y775D02*
X591D01*
X603Y710D02*
Y764D01*
X591Y775D02*
X601Y765D01*
X603Y764D01*
X817Y660D02*
X850D01*
X960Y550D01*
X1230D01*
X817Y610D02*
X879D01*
X954Y535D01*
X1195D01*
X1234Y496D02*
X1276D01*
X1330Y550D01*
X1195Y535D02*
X1234Y496D01*
X1230Y550D02*
X1260Y520D01*
X510Y675D02*
X550D01*
X565Y660D01*
X603D01*
X510Y575D02*
X545Y610D01*
X603D01*
X660Y560D02*
X660Y560D01*
X1650Y400D02*
Y420D01*
X1660Y430D01*
X1755D01*
X1820Y365D01*
X1865D01*
X2065Y530D02*
Y605D01*
Y530D02*
X2140Y455D01*
Y335D02*
Y455D01*
X2101Y275D02*
X2135D01*
X2225Y365D01*
X2280D01*
X2480Y525D02*
Y605D01*
Y525D02*
X2555Y450D01*
Y352D02*
Y450D01*
X1786Y230D02*
X2635D01*
X2695Y290D01*
Y365D01*
X2895Y535D02*
Y605D01*
Y535D02*
X2975Y455D01*
Y290D02*
Y455D01*
X2921Y215D02*
X3035D01*
X3110Y290D01*
Y365D01*
X3310Y530D02*
Y605D01*
Y530D02*
X3390Y450D01*
Y316D02*
Y450D01*
X3460Y455D02*
X3540D01*
X3265Y170D02*
X3435Y340D01*
Y430D01*
X3460Y455D01*
D29*
X603Y560D02*
X660D01*
D30*
X2065Y605D02*
D03*
X1965D02*
D03*
X1865D02*
D03*
X2480D02*
D03*
X2380D02*
D03*
X2280D02*
D03*
X2895D02*
D03*
X2795D02*
D03*
X2695D02*
D03*
X3110Y365D02*
D03*
X3210D02*
D03*
X3310D02*
D03*
X1865D02*
D03*
X1965D02*
D03*
X2065D02*
D03*
X3310Y605D02*
D03*
X3210D02*
D03*
X3110D02*
D03*
X2280Y365D02*
D03*
X2380D02*
D03*
X2480D02*
D03*
X2695D02*
D03*
X2795D02*
D03*
X2895D02*
D03*
D31*
X510Y195D02*
D03*
Y775D02*
D03*
D32*
Y95D02*
D03*
Y475D02*
D03*
Y675D02*
D03*
Y575D02*
D03*
D33*
X3540Y200D02*
D03*
X1000Y700D02*
D03*
D34*
X3540Y455D02*
D03*
Y555D02*
D03*
Y655D02*
D03*
D35*
X770Y159D02*
D03*
Y191D02*
D03*
X700Y135D02*
D03*
Y200D02*
D03*
X690Y35D02*
D03*
X605Y275D02*
D03*
X1533Y425D02*
D03*
X1448Y435D02*
D03*
X1730Y395D02*
D03*
X1760Y365D02*
D03*
X1419Y785D02*
D03*
X1355Y435D02*
D03*
X1280Y395D02*
D03*
X1643Y301D02*
D03*
X1599D02*
D03*
X1643Y344D02*
D03*
X1599D02*
D03*
X1655Y455D02*
D03*
X1445Y480D02*
D03*
X1475Y545D02*
D03*
X1665Y785D02*
D03*
X1330Y550D02*
D03*
X1260Y520D02*
D03*
X1275Y735D02*
D03*
Y585D02*
D03*
X750Y300D02*
D03*
X965D02*
D03*
X760Y760D02*
D03*
X670Y765D02*
D03*
X660Y560D02*
D03*
X820Y530D02*
D03*
X1505Y315D02*
D03*
X430Y50D02*
D03*
X340D02*
D03*
X250D02*
D03*
X145Y85D02*
D03*
X80Y150D02*
D03*
X50Y235D02*
D03*
X45Y330D02*
D03*
Y410D02*
D03*
Y505D02*
D03*
Y590D02*
D03*
X65Y690D02*
D03*
X105Y755D02*
D03*
X170Y810D02*
D03*
X245Y825D02*
D03*
X330D02*
D03*
X425D02*
D03*
X510Y835D02*
D03*
X610D02*
D03*
X680D02*
D03*
X130Y410D02*
D03*
X220D02*
D03*
X315D02*
D03*
X415D02*
D03*
X505D02*
D03*
X130Y330D02*
D03*
X220D02*
D03*
X310D02*
D03*
X415Y325D02*
D03*
X500D02*
D03*
X1655Y835D02*
D03*
X1740D02*
D03*
X1825D02*
D03*
X1910D02*
D03*
X1995D02*
D03*
X2080D02*
D03*
X2165D02*
D03*
X2250D02*
D03*
X2335D02*
D03*
X2420D02*
D03*
X2505D02*
D03*
X2590D02*
D03*
X2675D02*
D03*
X2760D02*
D03*
X2845D02*
D03*
X2930D02*
D03*
X3015D02*
D03*
X3100D02*
D03*
X3185D02*
D03*
X3270D02*
D03*
X3355D02*
D03*
X3440D02*
D03*
X3525D02*
D03*
X3595Y795D02*
D03*
X1645Y85D02*
D03*
X1725D02*
D03*
X1805D02*
D03*
X1885D02*
D03*
X1965D02*
D03*
X2045D02*
D03*
X2125D02*
D03*
X2205D02*
D03*
X2285D02*
D03*
X2365D02*
D03*
X2445D02*
D03*
X2525D02*
D03*
X2605D02*
D03*
X2685D02*
D03*
X2765D02*
D03*
X2845D02*
D03*
X2925D02*
D03*
X3005D02*
D03*
X3085D02*
D03*
X3165D02*
D03*
X3245D02*
D03*
X3325D02*
D03*
Y165D02*
D03*
X1555Y85D02*
D03*
X1450D02*
D03*
X1335D02*
D03*
X1555Y160D02*
D03*
X1355Y255D02*
D03*
X1415Y320D02*
D03*
Y255D02*
D03*
X1110Y440D02*
D03*
X1225D02*
D03*
Y295D02*
D03*
X1110D02*
D03*
X965Y425D02*
D03*
X750Y430D02*
D03*
X850Y425D02*
D03*
Y295D02*
D03*
X1215Y735D02*
D03*
X1210Y590D02*
D03*
X1110D02*
D03*
X1140Y780D02*
D03*
X1210Y670D02*
D03*
X1680Y665D02*
D03*
Y570D02*
D03*
X1865Y485D02*
D03*
X2065D02*
D03*
X2280D02*
D03*
X2480D02*
D03*
X2895D02*
D03*
X2695D02*
D03*
X3110D02*
D03*
X3310D02*
D03*
X3420Y655D02*
D03*
Y555D02*
D03*
X3005Y605D02*
D03*
Y365D02*
D03*
X2590D02*
D03*
X2595Y485D02*
D03*
Y605D02*
D03*
X2175D02*
D03*
Y365D02*
D03*
Y485D02*
D03*
X3005D02*
D03*
X3420D02*
D03*
X2795Y245D02*
D03*
X2690D02*
D03*
X2885D02*
D03*
X2380Y275D02*
D03*
X2435Y290D02*
D03*
X2285Y275D02*
D03*
X1800Y350D02*
D03*
X1915Y305D02*
D03*
X2015D02*
D03*
X1655Y730D02*
D03*
X1765Y665D02*
D03*
Y570D02*
D03*
X3660Y750D02*
D03*
X3705Y650D02*
D03*
Y575D02*
D03*
Y505D02*
D03*
Y435D02*
D03*
Y360D02*
D03*
Y290D02*
D03*
Y215D02*
D03*
X3670Y145D02*
D03*
X3625Y95D02*
D03*
X3560Y55D02*
D03*
X3495Y45D02*
D03*
X3425D02*
D03*
D36*
X930Y135D02*
D03*
X1180Y185D02*
D03*
X1280D02*
D03*
X930D02*
D03*
M02*
